<svg xmlns="http://www.w3.org/2000/svg" version="1.1" width="19px" height="19px" viewBox="0 0 1920 1920" style="shape-rendering:geometricPrecision; text-rendering:geometricPrecision; image-rendering:optimizeQuality; fill-rule:evenodd; clip-rule:evenodd" xmlns:xlink="http://www.w3.org/1999/xlink">
<g><path style="opacity:0.891" fill="currentColor" d="M 952.5,30.5 C 959.86,30.5578 967.194,31.0578 974.5,32C 982.508,33.4476 990.175,35.7809 997.5,39C 1011.29,47.4409 1024.29,57.1076 1036.5,68C 1058.02,82.924 1079.69,97.5907 1101.5,112C 1106.53,115.179 1111.86,117.846 1117.5,120C 1120.5,122.333 1123.5,124.667 1126.5,127C 1127.83,127.333 1129.17,127.667 1130.5,128C 1133.47,130.141 1136.47,132.141 1139.5,134C 1142.82,133.775 1145.16,135.108 1146.5,138C 1148.17,138.333 1149.83,138.667 1151.5,139C 1154.4,141.184 1157.4,143.184 1160.5,145C 1166.3,148.047 1172.3,150.714 1178.5,153C 1180.75,155.887 1183.75,157.22 1187.5,157C 1188.5,158 1189.5,159 1190.5,160C 1194.3,161.074 1197.97,162.408 1201.5,164C 1202.5,165 1203.5,166 1204.5,167C 1212.5,170 1220.5,173 1228.5,176C 1232.11,178.147 1235.77,180.147 1239.5,182C 1242.63,181.954 1245.3,182.954 1247.5,185C 1256.02,188.373 1264.69,191.373 1273.5,194C 1276.04,196.093 1279.04,197.093 1282.5,197C 1284.12,197.615 1285.45,198.615 1286.5,200C 1296.81,202.156 1306.81,205.156 1316.5,209C 1317.17,209.667 1317.83,210.333 1318.5,211C 1323.35,210.807 1327.69,212.14 1331.5,215C 1334.17,215.333 1336.83,215.667 1339.5,216C 1344.46,218.124 1349.46,220.124 1354.5,222C 1357.68,222.407 1360.85,222.907 1364,223.5C 1365.61,223.769 1366.77,224.603 1367.5,226C 1371.17,226.333 1374.83,226.667 1378.5,227C 1379.67,227.419 1380.67,228.085 1381.5,229C 1391.03,230.451 1400.36,232.451 1409.5,235C 1410.17,235.667 1410.83,236.333 1411.5,237C 1415.83,237.333 1420.17,237.667 1424.5,238C 1430.49,240.528 1436.82,241.861 1443.5,242C 1444.17,242.667 1444.83,243.333 1445.5,244C 1452.18,244.547 1458.85,245.213 1465.5,246C 1465.96,246.414 1466.29,246.914 1466.5,247.5C 1471.8,248.329 1477.14,248.829 1482.5,249C 1484.25,249.471 1485.91,250.138 1487.5,251C 1495.52,251.402 1503.52,252.068 1511.5,253C 1512.17,253.667 1512.83,254.333 1513.5,255C 1522.15,255.844 1530.82,256.51 1539.5,257C 1541.38,257.216 1543.05,257.883 1544.5,259C 1557.83,259.333 1571.17,259.667 1584.5,260C 1592.27,262.052 1600.27,263.052 1608.5,263C 1633.17,263.634 1657.84,263.468 1682.5,262.5C 1692.52,262.589 1702.52,263.089 1712.5,264C 1742.47,273.301 1762.63,292.801 1773,322.5C 1773.06,327.018 1773.73,331.351 1775,335.5C 1775.67,538.833 1775.67,742.167 1775,945.5C 1773.72,963.448 1773.05,981.448 1773,999.5C 1772.74,1001.62 1771.74,1003.28 1770,1004.5C 1769.67,1014.17 1769.33,1023.83 1769,1033.5C 1766.3,1042.2 1764.97,1051.2 1765,1060.5C 1764.09,1061.33 1763.42,1062.33 1763,1063.5C 1762.67,1069.83 1762.33,1076.17 1762,1082.5C 1759.05,1088.67 1757.72,1095.33 1758,1102.5C 1757.33,1103.17 1756.67,1103.83 1756,1104.5C 1755.08,1115 1753.42,1125.34 1751,1135.5C 1748.08,1139.92 1746.75,1144.92 1747,1150.5C 1746.38,1152.12 1745.38,1153.45 1744,1154.5C 1743.67,1158.5 1743.33,1162.5 1743,1166.5C 1742.33,1167.17 1741.67,1167.83 1741,1168.5C 1740.67,1171.5 1740.33,1174.5 1740,1177.5C 1739.74,1179.62 1738.74,1181.28 1737,1182.5C 1735.35,1189.81 1733.68,1197.15 1732,1204.5C 1678.94,1369.36 1589.78,1512.19 1464.5,1633C 1453.33,1642.23 1442.67,1651.89 1432.5,1662C 1417.82,1674 1403.15,1686 1388.5,1698C 1374.65,1707.76 1360.98,1717.76 1347.5,1728C 1335.87,1735.31 1324.53,1742.98 1313.5,1751C 1309.35,1752.47 1305.68,1754.8 1302.5,1758C 1282.92,1768.46 1263.58,1779.46 1244.5,1791C 1224.12,1801.36 1203.46,1811.36 1182.5,1821C 1174.49,1824 1166.49,1827 1158.5,1830C 1156.3,1832.05 1153.63,1833.05 1150.5,1833C 1149.45,1834.38 1148.12,1835.38 1146.5,1836C 1141.4,1838.21 1136.07,1839.87 1130.5,1841C 1129.83,1841.67 1129.17,1842.33 1128.5,1843C 1124.23,1842.97 1120.57,1844.31 1117.5,1847C 1114.03,1846.94 1111.03,1847.94 1108.5,1850C 1100.53,1852.65 1092.53,1855.31 1084.5,1858C 1078.01,1860.12 1071.34,1861.78 1064.5,1863C 1063.83,1863.67 1063.17,1864.33 1062.5,1865C 1057.32,1864.75 1052.65,1866.08 1048.5,1869C 1045.5,1869.33 1042.5,1869.67 1039.5,1870C 1033.44,1872 1027.44,1874 1021.5,1876C 1016.13,1876.2 1011.13,1877.54 1006.5,1880C 1001.19,1880.81 995.852,1881.48 990.5,1882C 984.122,1883.52 977.789,1885.19 971.5,1887C 963.5,1887.67 955.5,1887.67 947.5,1887C 930.943,1883.06 914.276,1879.39 897.5,1876C 700.228,1825.27 533.061,1724.44 396,1573.5C 395.517,1572.55 395.351,1571.55 395.5,1570.5C 394.325,1570.72 393.325,1570.39 392.5,1569.5C 308.465,1473.52 244.632,1366.19 201,1247.5C 201.208,1243.21 199.875,1239.54 197,1236.5C 194.339,1227.22 191.673,1217.88 189,1208.5C 187.748,1207 186.748,1205.33 186,1203.5C 183.59,1196.85 181.923,1189.85 181,1182.5C 180.085,1181.67 179.419,1180.67 179,1179.5C 179.21,1174.25 177.877,1169.58 175,1165.5C 172.905,1157 171.238,1148.34 170,1139.5C 169.333,1138.83 168.667,1138.17 168,1137.5C 167.667,1133.5 167.333,1129.5 167,1125.5C 166,1123.83 165,1122.17 164,1120.5C 163.667,1115.83 163.333,1111.17 163,1106.5C 162.085,1105.67 161.419,1104.67 161,1103.5C 160.567,1097.77 159.734,1092.1 158.5,1086.5C 157.914,1086.29 157.414,1085.96 157,1085.5C 156.537,1078.15 155.87,1070.81 155,1063.5C 154.085,1062.67 153.419,1061.67 153,1060.5C 152.667,1053.5 152.333,1046.5 152,1039.5C 150.175,1035.77 149.175,1031.77 149,1027.5C 148.667,1020.17 148.333,1012.83 148,1005.5C 146.956,1004.38 146.29,1003.04 146,1001.5C 145.401,977.435 144.067,953.435 142,929.5C 141.333,732.833 141.333,536.167 142,339.5C 147.859,301.192 169.026,276.026 205.5,264C 215.643,263.05 225.81,262.55 236,262.5C 266.178,263.994 296.345,263.827 326.5,262C 328.285,260.837 330.285,260.17 332.5,260C 346.5,259.667 360.5,259.333 374.5,259C 375.623,257.956 376.956,257.29 378.5,257C 387.18,256.51 395.847,255.844 404.5,255C 405.167,254.333 405.833,253.667 406.5,253C 421.66,252.126 436.66,250.459 451.5,248C 452.672,247.581 453.672,246.915 454.5,246C 460.814,245.153 467.147,244.487 473.5,244C 474.167,243.333 474.833,242.667 475.5,242C 485.845,240.31 496.178,238.643 506.5,237C 507.716,235.26 509.382,234.26 511.5,234C 514.833,233.667 518.167,233.333 521.5,233C 522.167,232.333 522.833,231.667 523.5,231C 529.177,230.727 534.511,229.393 539.5,227C 543.167,226.667 546.833,226.333 550.5,226C 551.09,224.701 552.09,223.868 553.5,223.5C 561.154,221.677 568.821,219.843 576.5,218C 577.167,217.333 577.833,216.667 578.5,216C 583.439,216.319 587.773,214.986 591.5,212C 594.167,211.667 596.833,211.333 599.5,211C 600.167,210.333 600.833,209.667 601.5,209C 611.307,205.398 621.307,202.398 631.5,200C 634.542,197.125 638.209,195.792 642.5,196C 643.167,195.333 643.833,194.667 644.5,194C 650.082,192.042 655.748,190.376 661.5,189C 665.009,186.642 668.676,184.642 672.5,183C 674.833,182.667 677.167,182.333 679.5,182C 682.833,180 686.167,178 689.5,176C 695.607,174.515 701.273,172.182 706.5,169C 708.788,168.178 711.122,167.511 713.5,167C 714.167,166 714.833,165 715.5,164C 719.471,162.725 723.471,161.391 727.5,160C 729.412,157.212 732.079,155.879 735.5,156C 747.056,149.111 759.056,143.111 771.5,138C 772.5,137 773.5,136 774.5,135C 780.285,132.52 785.951,129.853 791.5,127C 794.5,124.667 797.5,122.333 800.5,120C 803.977,118.2 807.644,116.867 811.5,116C 812.167,115 812.833,114 813.5,113C 817.327,110.663 820.993,108.163 824.5,105.5C 830.051,102.959 835.384,100.126 840.5,97C 851.883,87.6531 863.883,79.3197 876.5,72C 880.466,69.036 884.133,65.7026 887.5,62C 888.833,61.6667 890.167,61.3333 891.5,61C 895.428,57.6022 899.095,53.9355 902.5,50C 906.641,48.4284 910.308,46.0951 913.5,43C 916.825,43.2249 919.158,41.8916 920.5,39C 924.09,39.0867 927.09,37.92 929.5,35.5C 937.15,33.1578 944.817,31.4912 952.5,30.5 Z M 958.5,133.5 C 1068.49,217.493 1190.15,277.993 1323.5,315C 1329.11,317.124 1334.78,319.124 1340.5,321C 1343.83,321.333 1347.17,321.667 1350.5,322C 1351.17,322.667 1351.83,323.333 1352.5,324C 1359,324.295 1365,325.962 1370.5,329C 1378.65,330.925 1386.99,332.258 1395.5,333C 1397.49,334.751 1399.82,335.751 1402.5,336C 1406.17,336.333 1409.83,336.667 1413.5,337C 1414.17,337.667 1414.83,338.333 1415.5,339C 1427.64,341.423 1439.97,343.089 1452.5,344C 1454.27,345.439 1456.27,346.439 1458.5,347C 1464.5,347.333 1470.5,347.667 1476.5,348C 1478.36,349.981 1480.69,350.981 1483.5,351C 1492.02,350.884 1500.35,351.884 1508.5,354C 1517.83,354.333 1527.17,354.667 1536.5,355C 1538,356.252 1539.67,357.252 1541.5,358C 1556.83,358.333 1572.17,358.667 1587.5,359C 1588.62,360.044 1589.96,360.71 1591.5,361C 1620.18,362.137 1648.85,362.304 1677.5,361.5C 1677.67,556.834 1677.5,752.167 1677,947.5C 1676.03,949.392 1675.36,951.392 1675,953.5C 1674.05,968.153 1673.38,982.82 1673,997.5C 1671.96,998.623 1671.29,999.956 1671,1001.5C 1670.26,1018.7 1668.6,1035.7 1666,1052.5C 1665.33,1053.17 1664.67,1053.83 1664,1054.5C 1663.17,1066.37 1661.5,1078.03 1659,1089.5C 1656.18,1095.45 1654.85,1101.79 1655,1108.5C 1653.11,1110.03 1652.11,1112.03 1652,1114.5C 1650.28,1121.68 1648.95,1129.02 1648,1136.5C 1645.15,1141.04 1643.82,1146.04 1644,1151.5C 1641.06,1154.88 1639.73,1158.88 1640,1163.5C 1573.11,1378.67 1444.45,1547.67 1254,1670.5C 1252.19,1671.08 1250.36,1671.58 1248.5,1672C 1243.32,1676.96 1237.32,1680.62 1230.5,1683C 1220.66,1690.5 1209.99,1696.5 1198.5,1701C 1197.5,1702 1196.5,1703 1195.5,1704C 1183.81,1709.18 1172.15,1714.51 1160.5,1720C 1150.83,1725.97 1140.5,1730.64 1129.5,1734C 1125.99,1736.36 1122.32,1738.36 1118.5,1740C 1115.53,1740.79 1112.53,1741.46 1109.5,1742C 1104.09,1745.72 1098.09,1748.06 1091.5,1749C 1088.46,1751.87 1084.79,1753.21 1080.5,1753C 1076.33,1755.18 1072,1757.18 1067.5,1759C 1063.21,1758.79 1059.54,1760.13 1056.5,1763C 1053.5,1763.33 1050.5,1763.67 1047.5,1764C 1046.83,1764.67 1046.17,1765.33 1045.5,1766C 1041.01,1766.12 1037.01,1767.45 1033.5,1770C 1030.17,1770.33 1026.83,1770.67 1023.5,1771C 1021.88,1771.62 1020.55,1772.62 1019.5,1774C 1011.98,1775.54 1004.48,1777.04 997,1778.5C 995.393,1778.77 994.226,1779.6 993.5,1781C 989.5,1781.33 985.5,1781.67 981.5,1782C 979.833,1783 978.167,1784 976.5,1785C 970.368,1785.02 964.535,1786.19 959,1788.5C 953.867,1786.02 948.367,1784.86 942.5,1785C 936.912,1782.03 930.912,1780.69 924.5,1781C 923.284,1779.26 921.618,1778.26 919.5,1778C 912.614,1776.41 905.614,1775.08 898.5,1774C 894.347,1771.08 889.68,1769.75 884.5,1770C 879.989,1767.59 875.322,1765.59 870.5,1764C 865.561,1764.32 861.227,1762.99 857.5,1760C 855.167,1759.67 852.833,1759.33 850.5,1759C 846.111,1757.15 841.777,1755.15 837.5,1753C 833.209,1753.21 829.542,1751.87 826.5,1749C 815.141,1744.95 803.807,1740.95 792.5,1737C 662.852,1681.25 551.352,1600.08 458,1493.5C 453.81,1486.96 448.81,1480.96 443,1475.5C 438.731,1468.57 433.731,1462.23 428,1456.5C 396.892,1414.88 368.892,1371.21 344,1325.5C 331.293,1299.4 318.96,1273.06 307,1246.5C 306.051,1241.66 304.718,1237 303,1232.5C 302.632,1231.09 301.799,1230.09 300.5,1229.5C 298.275,1222.72 295.775,1216.05 293,1209.5C 288.126,1194.13 283.126,1178.8 278,1163.5C 275.868,1156.33 274.202,1148.99 273,1141.5C 271,1135.52 269,1129.52 267,1123.5C 264.881,1114.32 263.214,1104.99 262,1095.5C 261,1093.83 260,1092.17 259,1090.5C 256.642,1071.46 253.975,1052.46 251,1033.5C 250.333,1032.17 249.667,1030.83 249,1029.5C 248.209,1019.84 247.542,1010.18 247,1000.5C 246.333,999.167 245.667,997.833 245,996.5C 244.667,982.5 244.333,968.5 244,954.5C 243.751,951.823 242.751,949.49 241,947.5C 240.5,752.167 240.333,556.834 240.5,361.5C 269.152,362.304 297.819,362.137 326.5,361C 328.246,360.529 329.913,359.862 331.5,359C 346.833,358.667 362.167,358.333 377.5,358C 379.618,357.74 381.284,356.74 382.5,355C 392.167,354.667 401.833,354.333 411.5,354C 419.586,351.838 427.919,350.838 436.5,351C 439.525,350.867 442.192,349.867 444.5,348C 449.833,347.667 455.167,347.333 460.5,347C 462.974,346.887 464.974,345.887 466.5,344C 479.027,343.076 491.361,341.409 503.5,339C 504.167,338.333 504.833,337.667 505.5,337C 510.882,336.693 516.215,336.026 521.5,335C 522.167,334.333 522.833,333.667 523.5,333C 531.719,332.469 539.719,331.135 547.5,329C 549.619,328.902 551.286,328.069 552.5,326.5C 566,323.036 579.667,319.869 593.5,317C 597.372,314.298 601.705,312.965 606.5,313C 607.167,312.333 607.833,311.667 608.5,311C 611.167,310.667 613.833,310.333 616.5,310C 625.632,306.93 634.632,303.597 643.5,300C 645.833,299.667 648.167,299.333 650.5,299C 657.828,296.334 665.162,293.667 672.5,291C 675.044,288.907 678.044,287.907 681.5,288C 683.116,287.385 684.449,286.385 685.5,285C 690.643,282.889 695.976,281.223 701.5,280C 771.662,251.688 838.328,217.188 901.5,176.5C 920.003,162.838 938.67,149.338 957.5,136C 958.252,135.329 958.586,134.496 958.5,133.5 Z M 1313.5,1173.5 C 1331.91,1174.58 1342.24,1184.25 1344.5,1202.5C 1342.65,1219.35 1333.32,1229.02 1316.5,1231.5C 1294.44,1228.26 1285.27,1215.59 1289,1193.5C 1293.78,1182.54 1301.95,1175.87 1313.5,1173.5 Z"/></g>
<g><path style="opacity:0.013" fill="currentColor" d="M 1082.5,370.5 C 1084.98,370.747 1084.98,371.413 1082.5,372.5C 1081.54,372.03 1081.54,371.363 1082.5,370.5 Z"/></g>
<g><path style="opacity:0.012" fill="currentColor" d="M 1144.5,377.5 C 1145.5,376.287 1146.5,376.454 1147.5,378C 1146.42,378.47 1145.42,378.303 1144.5,377.5 Z"/></g>
<g><path style="opacity:0.011" fill="currentColor" d="M 1182.5,415.5 C 1184.07,414.441 1185.4,414.941 1186.5,417C 1184.93,417.3 1183.6,416.8 1182.5,415.5 Z"/></g>
<g><path style="opacity:0.94" fill="currentColor" d="M 1338.5,437.5 C 1405.91,432.747 1455.08,460.081 1486,519.5C 1496.18,545 1499.51,571.667 1496,599.5C 1490.03,632.262 1474.53,659.762 1449.5,682C 1447.71,682.52 1446.04,682.187 1444.5,681C 1382.72,618.511 1320.89,556.678 1259,495.5C 1256.5,492.333 1254,489.167 1251.5,486C 1275.14,460.189 1304.14,444.022 1338.5,437.5 Z"/></g>
<g><path style="opacity:0.951" fill="currentColor" d="M 718.5,447.5 C 748.504,445.449 775.171,453.615 798.5,472C 869.333,542.833 940.167,613.667 1011,684.5C 1013,687.167 1013,689.833 1011,692.5C 920.545,783.122 830.045,873.455 739.5,963.5C 737.088,964.818 734.754,964.651 732.5,963C 721,951.5 709.5,940 698,928.5C 696,925.833 696,923.167 698,920.5C 712.363,906.471 726.363,892.138 740,877.5C 748.7,858.266 743.533,844.099 724.5,835C 715.515,832.711 707.181,834.044 699.5,839C 685.833,852.667 672.167,866.333 658.5,880C 655.5,882 652.5,882 649.5,880C 633.333,863.833 617.167,847.667 601,831.5C 599.195,828.789 599.195,826.122 601,823.5C 616.09,809.08 630.424,794.08 644,778.5C 651.21,759.125 645.377,745.291 626.5,737C 616.758,734.802 608.091,736.802 600.5,743C 587.167,756.333 573.833,769.667 560.5,783C 557.773,783.818 555.106,783.652 552.5,782.5C 535.369,767.87 520.536,751.203 508,732.5C 487.12,687.509 493.454,646.842 527,610.5C 574.247,564.252 621.08,517.752 667.5,471C 682.565,458.798 699.565,450.965 718.5,447.5 Z"/></g>
<g><path style="opacity:0.969" fill="currentColor" d="M 1216.5,521.5 C 1217.47,521.987 1218.47,522.487 1219.5,523C 1283.83,587.662 1348,652.162 1412,716.5C 1412.67,717.5 1412.67,718.5 1412,719.5C 1229.67,901.829 1047.5,1084 865.5,1266C 864.5,1266.67 863.5,1266.67 862.5,1266C 798.027,1202.53 733.861,1138.69 670,1074.5C 668.628,1071.64 667.461,1069.14 666.5,1067C 667.744,1066.54 668.577,1067.04 669,1068.5C 851.422,885.911 1033.92,703.578 1216.5,521.5 Z"/></g>
<g><path style="opacity:0.01" fill="currentColor" d="M 1466.5,699.5 C 1468.07,698.441 1469.4,698.941 1470.5,701C 1468.93,701.3 1467.6,700.8 1466.5,699.5 Z"/></g>
<g><path style="opacity:0.006" fill="currentColor" d="M 1433.5,742.5 C 1434.5,741.287 1435.5,741.454 1436.5,743C 1435.42,743.47 1434.42,743.303 1433.5,742.5 Z"/></g>
<g><path style="opacity:0.008" fill="currentColor" d="M 1444.5,753.5 C 1445.5,752.287 1446.5,752.454 1447.5,754C 1446.42,754.47 1445.42,754.303 1444.5,753.5 Z"/></g>
<g><path style="opacity:0.01" fill="currentColor" d="M 1564.5,797.5 C 1566.07,796.441 1567.4,796.941 1568.5,799C 1566.93,799.3 1565.6,798.8 1564.5,797.5 Z"/></g>
<g><path style="opacity:0.007" fill="currentColor" d="M 1578.5,868.5 C 1580.98,868.747 1580.98,869.413 1578.5,870.5C 1577.54,870.03 1577.54,869.363 1578.5,868.5 Z"/></g>
<g><path style="opacity:0.944" fill="currentColor" d="M 1244.5,922.5 C 1246.2,922.34 1247.87,922.506 1249.5,923C 1320,993.5 1390.5,1064 1461,1134.5C 1492.8,1174.05 1495.8,1215.72 1470,1259.5C 1467.43,1262.32 1465.09,1265.32 1463,1268.5C 1414.5,1317 1366,1365.5 1317.5,1414C 1281.95,1441.83 1243.62,1446.16 1202.5,1427C 1183.19,1414.03 1166.02,1398.53 1151,1380.5C 1150.33,1378.83 1150.33,1377.17 1151,1375.5C 1166.4,1360.77 1181.06,1345.44 1195,1329.5C 1201.81,1310.93 1196.31,1297.43 1178.5,1289C 1170.64,1287.12 1162.97,1287.79 1155.5,1291C 1140.53,1304.97 1125.86,1319.3 1111.5,1334C 1108.95,1335.55 1106.28,1335.55 1103.5,1334C 1087,1317.5 1070.5,1301 1054,1284.5C 1053.33,1282.17 1053.33,1279.83 1054,1277.5C 1066.67,1264.83 1079.33,1252.17 1092,1239.5C 1105.78,1221.43 1103.28,1205.93 1084.5,1193C 1075.67,1189.52 1067,1189.86 1058.5,1194C 1043.53,1207.97 1028.86,1222.3 1014.5,1237C 1011.83,1237.67 1009.17,1237.67 1006.5,1237C 995,1225.5 983.5,1214 972,1202.5C 970.627,1200.3 970.294,1197.97 971,1195.5C 1062.03,1104.3 1153.2,1013.3 1244.5,922.5 Z M 1313.5,1173.5 C 1301.95,1175.87 1293.78,1182.54 1289,1193.5C 1285.27,1215.59 1294.44,1228.26 1316.5,1231.5C 1333.32,1229.02 1342.65,1219.35 1344.5,1202.5C 1342.24,1184.25 1331.91,1174.58 1313.5,1173.5 Z"/></g>
<g><path style="opacity:0.019" fill="currentColor" d="M 538.5,940.5 C 540.337,940.639 540.67,941.306 539.5,942.5C 538.702,942.043 538.369,941.376 538.5,940.5 Z"/></g>
<g><path style="opacity:0.013" fill="currentColor" d="M 554.5,955.5 C 555.077,954.227 555.743,954.227 556.5,955.5C 556.03,956.463 555.363,956.463 554.5,955.5 Z"/></g>
<g><path style="opacity:0.015" fill="currentColor" d="M 521.5,957.5 C 523.337,957.639 523.67,958.306 522.5,959.5C 521.702,959.043 521.369,958.376 521.5,957.5 Z"/></g>
<g><path style="opacity:0.014" fill="currentColor" d="M 517.5,961.5 C 519.973,961.947 520.14,962.947 518,964.5C 516.272,963.648 516.105,962.648 517.5,961.5 Z"/></g>
<g><path style="opacity:0.013" fill="currentColor" d="M 564.5,965.5 C 565.077,964.227 565.743,964.227 566.5,965.5C 566.03,966.463 565.363,966.463 564.5,965.5 Z"/></g>
<g><path style="opacity:0.014" fill="currentColor" d="M 512.5,966.5 C 514.337,966.639 514.67,967.306 513.5,968.5C 512.702,968.043 512.369,967.376 512.5,966.5 Z"/></g>
<g><path style="opacity:0.014" fill="currentColor" d="M 506.5,973.5 C 507.077,972.227 507.743,972.227 508.5,973.5C 508.03,974.463 507.363,974.463 506.5,973.5 Z"/></g>
<g><path style="opacity:0.014" fill="currentColor" d="M 504.5,975.5 C 505.077,974.227 505.743,974.227 506.5,975.5C 506.03,976.463 505.363,976.463 504.5,975.5 Z"/></g>
<g><path style="opacity:0.013" fill="currentColor" d="M 596.5,997.5 C 597.077,996.227 597.743,996.227 598.5,997.5C 598.03,998.463 597.363,998.463 596.5,997.5 Z"/></g>
<g><path style="opacity:0.013" fill="currentColor" d="M 608.5,1008.5 C 607.711,1008.22 607.044,1007.72 606.5,1007C 607.816,1006.47 608.483,1006.97 608.5,1008.5 Z"/></g>
<g><path style="opacity:0.012" fill="currentColor" d="M 622.5,1023.5 C 623.077,1022.23 623.743,1022.23 624.5,1023.5C 624.03,1024.46 623.363,1024.46 622.5,1023.5 Z"/></g>
<g><path style="opacity:0.012" fill="currentColor" d="M 636.5,1037.5 C 637.077,1036.23 637.743,1036.23 638.5,1037.5C 638.03,1038.46 637.363,1038.46 636.5,1037.5 Z"/></g>
<g><path style="opacity:0.012" fill="currentColor" d="M 652.5,1053.5 C 653.077,1052.23 653.743,1052.23 654.5,1053.5C 654.03,1054.46 653.363,1054.46 652.5,1053.5 Z"/></g>
<g><path style="opacity:0.012" fill="currentColor" d="M 655.5,1056.5 C 656.077,1055.23 656.743,1055.23 657.5,1056.5C 657.03,1057.46 656.363,1057.46 655.5,1056.5 Z"/></g>
<g><path style="opacity:0.952" fill="currentColor" d="M 631.5,1105.5 C 633.595,1106.41 635.595,1107.58 637.5,1109C 701.193,1173.69 765.193,1238.03 829.5,1302C 808.347,1323.65 787.014,1345.15 765.5,1366.5C 760.274,1371.9 754.608,1376.73 748.5,1381C 708.464,1393.9 668.297,1406.4 628,1418.5C 626.373,1418.37 624.873,1417.87 623.5,1417C 588.279,1381.78 553.113,1346.61 518,1311.5C 517.077,1309.97 516.577,1308.3 516.5,1306.5C 528.309,1265.96 540.809,1225.63 554,1185.5C 557,1181.83 560,1178.17 563,1174.5C 585.981,1151.69 608.814,1128.69 631.5,1105.5 Z"/></g>
<g><path style="opacity:0.01" fill="currentColor" d="M 881.5,1281.5 C 883.337,1281.64 883.67,1282.31 882.5,1283.5C 881.702,1283.04 881.369,1282.38 881.5,1281.5 Z"/></g>
<g><path style="opacity:0.01" fill="currentColor" d="M 890.5,1290.5 C 892.337,1290.64 892.67,1291.31 891.5,1292.5C 890.702,1292.04 890.369,1291.38 890.5,1290.5 Z"/></g>
<g><path style="opacity:0.01" fill="currentColor" d="M 904.5,1305.5 C 906.268,1304.49 907.601,1305.16 908.5,1307.5C 908.167,1307.83 907.833,1308.17 907.5,1308.5C 906.712,1307.23 905.712,1306.23 904.5,1305.5 Z"/></g>
<g><path style="opacity:0.007" fill="currentColor" d="M 912.5,1313.5 C 913.077,1312.23 913.743,1312.23 914.5,1313.5C 914.03,1314.46 913.363,1314.46 912.5,1313.5 Z"/></g>
<g><path style="opacity:0.01" fill="currentColor" d="M 932.5,1332.5 C 930.663,1332.36 930.33,1331.69 931.5,1330.5C 932.298,1330.96 932.631,1331.62 932.5,1332.5 Z"/></g>
<g><path style="opacity:0.008" fill="currentColor" d="M 936.5,1336.5 C 935.711,1336.22 935.044,1335.72 934.5,1335C 935.816,1334.47 936.483,1334.97 936.5,1336.5 Z"/></g>
<g><path style="opacity:0.008" fill="currentColor" d="M 936.5,1336.5 C 937.922,1336.75 938.922,1337.58 939.5,1339C 937.511,1339.52 936.511,1338.69 936.5,1336.5 Z"/></g>
<g><path style="opacity:0.818" fill="currentColor" d="M 508.5,1339.5 C 509.922,1339.71 511.255,1340.21 512.5,1341C 540.528,1368.69 568.195,1396.69 595.5,1425C 594.833,1426.33 594.167,1427.67 593.5,1429C 573.15,1435.33 552.817,1441.67 532.5,1448C 509.571,1452.69 494.071,1444.19 486,1422.5C 485.333,1416.83 485.333,1411.17 486,1405.5C 492.634,1384.57 498.967,1363.57 505,1342.5C 506.145,1341.36 507.312,1340.36 508.5,1339.5 Z"/></g>
<g><path style="opacity:0.01" fill="currentColor" d="M 946.5,1346.5 C 948.337,1346.64 948.67,1347.31 947.5,1348.5C 946.702,1348.04 946.369,1347.38 946.5,1346.5 Z"/></g>
<g><path style="opacity:0.008" fill="currentColor" d="M 950.5,1350.5 C 952.337,1350.64 952.67,1351.31 951.5,1352.5C 950.702,1352.04 950.369,1351.38 950.5,1350.5 Z"/></g>
<g><path style="opacity:0.009" fill="currentColor" d="M 954.5,1355.5 C 955.077,1354.23 955.743,1354.23 956.5,1355.5C 956.03,1356.46 955.363,1356.46 954.5,1355.5 Z"/></g>
<g><path style="opacity:0.008" fill="currentColor" d="M 974.5,1374.5 C 976.337,1374.64 976.67,1375.31 975.5,1376.5C 974.702,1376.04 974.369,1375.38 974.5,1374.5 Z"/></g>
<g><path style="opacity:0.008" fill="currentColor" d="M 988.5,1388.5 C 986.027,1388.4 985.361,1387.4 986.5,1385.5C 987.425,1386.36 988.092,1387.36 988.5,1388.5 Z"/></g>
<g><path style="opacity:0.013" fill="currentColor" d="M 988.5,1388.5 C 990.337,1388.64 990.67,1389.31 989.5,1390.5C 988.702,1390.04 988.369,1389.38 988.5,1388.5 Z"/></g>
<g><path style="opacity:0.01" fill="currentColor" d="M 1004.5,1404.5 C 1006.34,1404.64 1006.67,1405.31 1005.5,1406.5C 1004.7,1406.04 1004.37,1405.38 1004.5,1404.5 Z"/></g>
<g><path style="opacity:0.007" fill="currentColor" d="M 1010.5,1411.5 C 1011.08,1410.23 1011.74,1410.23 1012.5,1411.5C 1012.03,1412.46 1011.36,1412.46 1010.5,1411.5 Z"/></g>
<g><path style="opacity:0.01" fill="currentColor" d="M 1018.5,1418.5 C 1020.34,1418.64 1020.67,1419.31 1019.5,1420.5C 1018.7,1420.04 1018.37,1419.38 1018.5,1418.5 Z"/></g>
<g><path style="opacity:0.008" fill="currentColor" d="M 1032.5,1433.5 C 1033.08,1432.23 1033.74,1432.23 1034.5,1433.5C 1034.03,1434.46 1033.36,1434.46 1032.5,1433.5 Z"/></g>
<g><path style="opacity:0.009" fill="currentColor" d="M 1034.5,1436.5 C 1035.38,1436.37 1036.04,1436.7 1036.5,1437.5C 1035.54,1440.08 1034.2,1440.58 1032.5,1439C 1033.38,1438.29 1034.05,1437.46 1034.5,1436.5 Z"/></g>
<g><path style="opacity:0.007" fill="currentColor" d="M 1030.5,1441.5 C 1031.08,1440.23 1031.74,1440.23 1032.5,1441.5C 1032.03,1442.46 1031.36,1442.46 1030.5,1441.5 Z"/></g>
<g><path style="opacity:0.007" fill="currentColor" d="M 1028.5,1443.5 C 1029.08,1442.23 1029.74,1442.23 1030.5,1443.5C 1030.03,1444.46 1029.36,1444.46 1028.5,1443.5 Z"/></g>
<g><path style="opacity:0.007" fill="currentColor" d="M 1021.5,1449.5 C 1023.97,1449.95 1024.14,1450.95 1022,1452.5C 1020.27,1451.65 1020.1,1450.65 1021.5,1449.5 Z"/></g>
<g><path style="opacity:0.007" fill="currentColor" d="M 1012.5,1459.5 C 1013.08,1458.23 1013.74,1458.23 1014.5,1459.5C 1014.03,1460.46 1013.36,1460.46 1012.5,1459.5 Z"/></g>
<g><path style="opacity:0.005" fill="currentColor" d="M 1001.5,1470.5 C 1002.08,1469.23 1002.74,1469.23 1003.5,1470.5C 1003.03,1471.46 1002.36,1471.46 1001.5,1470.5 Z"/></g>
</svg>
