<svg version="1.1" xmlns="http://www.w3.org/2000/svg" viewBox="0 0 1280 1280" width="24px" height="24px" style="display: inline-block; vertical-align: middle;" aria-hidden="true">
<path d="M0 0 C2.28222598 0.00315694 4.5631487 -0.0203417 6.84521484 -0.0456543 C14.7691796 -0.08033366 21.98906166 0.26354601 29.41943359 3.31567383 C30.34755859 3.69208008 31.27568359 4.06848633 32.23193359 4.45629883 C38.28199089 7.52454217 44.22035335 10.9241103 49.41943359 15.31567383 C49.41943359 15.97567383 49.41943359 16.63567383 49.41943359 17.31567383 C50.22380859 17.68692383 50.22380859 17.68692383 51.04443359 18.06567383 C54.8447904 20.06586162 58.32620007 22.43501349 61.66943359 25.12817383 C68.73158827 30.74579687 76.35499172 35.62830925 83.87207031 40.60961914 C87.59556974 43.08186387 91.27526852 45.6019834 94.91943359 48.19067383 C101.71907174 52.9772612 108.96397529 56.65544883 116.41943359 60.31567383 C116.41943359 60.97567383 116.41943359 61.63567383 116.41943359 62.31567383 C117.84255859 62.77973633 117.84255859 62.77973633 119.29443359 63.25317383 C122.41943359 64.31567383 122.41943359 64.31567383 124.41943359 65.31567383 C124.41943359 65.97567383 124.41943359 66.63567383 124.41943359 67.31567383 C125.00861572 67.4476416 125.59779785 67.57960938 126.20483398 67.71557617 C129.63680687 68.64554964 132.70213065 70.33369374 135.85693359 71.94067383 C136.56414551 72.29677734 137.27135742 72.65288086 138 73.01977539 C142.47852162 75.28771242 146.89479353 77.64874908 151.29443359 80.06567383 C155.76386784 82.50404744 160.20396203 84.49718857 164.96240234 86.28833008 C167.72405958 87.44304527 170.25375175 88.83918738 172.85693359 90.31567383 C177.35894946 92.84212155 181.82559227 94.66062146 186.70068359 96.33129883 C189.36168821 97.29476602 191.86443221 98.41375959 194.41943359 99.62817383 C200.31977096 102.3788347 206.39055808 104.57682998 212.50585938 106.79272461 C216.63660921 108.28951589 220.73642668 109.81621187 224.79443359 111.50317383 C229.58223202 113.46524884 234.50379885 114.89984924 239.45849609 116.37817383 C242.41943359 117.31567383 242.41943359 117.31567383 245.98193359 118.87817383 C250.12216217 120.60954214 254.28109508 121.57692426 258.64990234 122.56958008 C261.41943359 123.31567383 261.41943359 123.31567383 263.27099609 124.27661133 C266.55517112 125.8649578 270.07202462 126.55179066 273.60693359 127.37817383 C281.29014298 129.18638321 281.29014298 129.18638321 282.41943359 130.31567383 C285.77829244 130.97316857 289.14106232 131.56162095 292.51708984 132.12231445 C296.07168017 132.74711949 298.37644425 133.28701427 301.41943359 135.31567383 C303.32507561 135.82509159 303.32507561 135.82509159 305.40380859 136.09692383 C306.17466797 136.21680664 306.94552734 136.33668945 307.73974609 136.46020508 C308.54154297 136.57750977 309.34333984 136.69481445 310.16943359 136.81567383 C315.73941065 137.64660483 321.00733453 138.70540732 326.41943359 140.31567383 C328.75200854 140.65427342 331.08517571 140.98887772 333.41943359 141.31567383 C333.74943359 141.64567383 334.07943359 141.97567383 334.41943359 142.31567383 C335.91486824 142.50260316 337.41665146 142.63953752 338.91943359 142.75317383 C344.59453835 143.26982632 349.98224047 144.42070656 355.48974609 145.85473633 C361.31081267 147.29389301 367.02367722 147.67562843 373.00146484 148.03442383 C376.73704007 148.3418083 380.24655747 149.02462187 383.89599609 149.84301758 C387.88594066 150.59036014 391.9036887 150.8140353 395.95068359 151.06958008 C398.41943359 151.31567383 398.41943359 151.31567383 400.41943359 152.31567383 C402.48826389 152.45821243 404.56126985 152.54200585 406.63427734 152.59692383 C407.87757813 152.63430664 409.12087891 152.67168945 410.40185547 152.71020508 C411.70703125 152.74500977 413.01220703 152.77981445 414.35693359 152.81567383 C416.92866205 152.88445706 419.50028892 152.95718596 422.07177734 153.03442383 C423.21638428 153.0647168 424.36099121 153.09500977 425.5402832 153.1262207 C428.41943359 153.31567383 428.41943359 153.31567383 431.41943359 154.31567383 C433.8651878 154.41982981 436.28361837 154.46974484 438.72973633 154.47338867 C439.84264793 154.48100975 439.84264793 154.48100975 440.9780426 154.48878479 C442.5903906 154.49948552 444.20275342 154.50810687 445.8151226 154.51490402 C448.37691265 154.52672151 450.93853627 154.54618634 453.5002594 154.56802368 C460.78470204 154.62951016 468.06913084 154.68346681 475.35375977 154.71704102 C479.81183873 154.73813874 484.26961893 154.77357007 488.72752571 154.81779861 C490.41734327 154.83185034 492.10721375 154.84065626 493.79708672 154.843853 C503.4317256 154.8639911 512.14462744 155.33165591 521.41943359 158.31567383 C521.41943359 158.97567383 521.41943359 159.63567383 521.41943359 160.31567383 C522.07943359 160.37754883 522.73943359 160.43942383 523.41943359 160.50317383 C527.54110109 161.61945877 531.07693861 163.65328949 534.41943359 166.31567383 C534.41943359 166.97567383 534.41943359 167.63567383 534.41943359 168.31567383 C534.95568359 168.52192383 535.49193359 168.72817383 536.04443359 168.94067383 C539.33921368 170.84817809 542.01306988 173.36386767 544.41943359 176.31567383 C544.41943359 176.97567383 544.41943359 177.63567383 544.41943359 178.31567383 C545.07943359 178.31567383 545.73943359 178.31567383 546.41943359 178.31567383 C547.38133356 180.04285899 548.33879867 181.77251441 549.29443359 183.50317383 C549.82810547 184.46610352 550.36177734 185.4290332 550.91162109 186.42114258 C553.30842178 191.02225478 554.68396209 194.39585529 554.54443359 199.62817383 C554.52638672 200.51118164 554.50833984 201.39418945 554.48974609 202.30395508 C554.46654297 202.96782227 554.44333984 203.63168945 554.41943359 204.31567383 C555.07943359 204.31567383 555.73943359 204.31567383 556.41943359 204.31567383 C556.44229752 258.18635103 556.45993057 312.05702774 556.47049892 365.92770883 C556.4717497 372.28041918 556.47304402 378.63312951 556.47436523 384.98583984 C556.47462754 386.25060758 556.47488986 387.51537532 556.47516011 388.81846935 C556.47951735 409.32638392 556.4874052 429.8342957 556.49658639 450.34220862 C556.50592143 471.368354 556.51148889 492.39449792 556.51352209 513.4206453 C556.51489763 526.40614325 556.51924988 539.39163332 556.52735006 552.37712885 C556.53261568 561.2687515 556.53423831 570.16037004 556.53293497 579.05199414 C556.5322913 584.19022453 556.53331235 589.32844111 556.53863907 594.46666908 C556.5434719 599.1624853 556.54377301 603.85827828 556.54033249 608.55409551 C556.53990668 610.26069737 556.54120339 611.96730063 556.54431678 613.6738997 C556.54827891 615.97812173 556.54619815 618.28225778 556.54248142 620.58647823 C556.54286114 621.87107211 556.54324086 623.15566599 556.54363209 624.47918695 C556.41943359 627.31567383 556.41943359 627.31567383 555.41943359 628.31567383 C555.27172745 630.9682935 555.18444124 633.59823189 555.13818359 636.25317383 C555.11977417 637.04844482 555.10136475 637.84371582 555.08239746 638.66308594 C555.02346389 641.21387118 554.97072101 643.76472405 554.91943359 646.31567383 C554.85199432 649.66998968 554.77832622 653.02408041 554.70068359 656.37817383 C554.68710815 657.15733154 554.67353271 657.93648926 554.6595459 658.73925781 C554.5322354 664.20287202 554.5322354 664.20287202 553.41943359 665.31567383 C553.2871636 666.6828358 553.21626476 668.05608048 553.17333984 669.42895508 C553.14046875 670.26491211 553.10759766 671.10086914 553.07373047 671.9621582 C553.01294008 673.72766621 552.95560097 675.4932967 552.90185547 677.2590332 C552.86769531 678.09885742 552.83353516 678.93868164 552.79833984 679.80395508 C552.76075562 680.9569812 552.76075562 680.9569812 552.72241211 682.13330078 C552.38649538 684.5529298 551.530218 686.15729172 550.41943359 688.31567383 C550.14953435 690.88110783 549.95788538 693.3700967 549.85693359 695.94067383 C549.53936603 703.07580896 549.53936603 703.07580896 548.41943359 705.31567383 C548.21448172 707.47905474 548.05379085 709.64676388 547.91943359 711.81567383 C547.5305447 718.09345161 547.5305447 718.09345161 546.41943359 720.31567383 C545.75943359 720.31567383 545.09943359 720.31567383 544.41943359 720.31567383 C544.43103516 721.17032227 544.44263672 722.0249707 544.45458984 722.90551758 C544.468125 724.56260742 544.468125 724.56260742 544.48193359 726.25317383 C544.49353516 727.35532227 544.50513672 728.4574707 544.51708984 729.59301758 C544.41943359 732.31567383 544.41943359 732.31567383 543.41943359 733.31567383 C543.13654178 735.56982761 542.97172169 737.82408038 542.79833984 740.08911133 C542.41943359 742.31567383 542.41943359 742.31567383 540.41943359 745.31567383 C540.00199994 747.56213259 540.00199994 747.56213259 539.85693359 749.94067383 C539.51785187 754.21725555 539.51785187 754.21725555 538.41943359 755.31567383 C537.90458655 757.53687108 537.43268745 759.76808866 536.98193359 762.00317383 C536.05883751 766.57999052 534.92761204 770.90016345 533.41943359 775.31567383 C533.01845034 776.93445807 532.64049002 778.55926494 532.29443359 780.19067383 C532.12685547 780.9718457 531.95927734 781.75301758 531.78662109 782.55786133 C531.66544922 783.13793945 531.54427734 783.71801758 531.41943359 784.31567383 C530.75943359 784.31567383 530.09943359 784.31567383 529.41943359 784.31567383 C529.44005859 785.45004883 529.46068359 786.58442383 529.48193359 787.75317383 C529.41943359 791.31567383 529.41943359 791.31567383 528.41943359 792.31567383 C528.02794598 793.82733037 527.67970902 795.35037015 527.35693359 796.87817383 C527.18033203 797.70446289 527.00373047 798.53075195 526.82177734 799.38208008 C526.68900391 800.02016602 526.55623047 800.65825195 526.41943359 801.31567383 C525.75943359 801.31567383 525.09943359 801.31567383 524.41943359 801.31567383 C524.41943359 803.95567383 524.41943359 806.59567383 524.41943359 809.31567383 C523.75943359 809.31567383 523.09943359 809.31567383 522.41943359 809.31567383 C522.32404297 810.26442383 522.22865234 811.21317383 522.13037109 812.19067383 C521.42427229 817.11602267 519.72875022 821.65248316 518.04443359 826.31567383 C517.58810547 827.61118164 517.58810547 827.61118164 517.12255859 828.93286133 C515.38733907 833.8122393 513.48937434 838.56980969 511.41943359 843.31567383 C510.73106846 845.30830974 510.0566196 847.30608719 509.41943359 849.31567383 C508.75943359 849.31567383 508.09943359 849.31567383 507.41943359 849.31567383 C507.48130859 850.73879883 507.48130859 850.73879883 507.54443359 852.19067383 C507.41943359 855.31567383 507.41943359 855.31567383 505.41943359 857.31567383 C504.82108806 858.83624001 504.28436703 860.38179471 503.79443359 861.94067383 C503.53404297 862.75793945 503.27365234 863.57520508 503.00537109 864.41723633 C502.81201172 865.0437207 502.61865234 865.67020508 502.41943359 866.31567383 C501.75943359 866.31567383 501.09943359 866.31567383 500.41943359 866.31567383 C500.35755859 867.07879883 500.29568359 867.84192383 500.23193359 868.62817383 C499.07110319 873.89655796 496.72596126 878.45982611 494.41943359 883.31567383 C493.47828395 885.376511 492.54062406 887.43894646 491.60693359 889.50317383 C490.87776693 891.10734049 490.14860026 892.71150716 489.41943359 894.31567383 C488.75943359 894.31567383 488.09943359 894.31567383 487.41943359 894.31567383 C487.41943359 895.63567383 487.41943359 896.95567383 487.41943359 898.31567383 C486.75943359 898.31567383 486.09943359 898.31567383 485.41943359 898.31567383 C485.41943359 899.96567383 485.41943359 901.61567383 485.41943359 903.31567383 C484.75943359 903.31567383 484.09943359 903.31567383 483.41943359 903.31567383 C483.30728516 904.03110352 483.19513672 904.7465332 483.07958984 905.48364258 C482.37487354 908.50683381 481.28655561 910.87890071 479.85693359 913.62817383 C479.174375 914.95268555 479.174375 914.95268555 478.47802734 916.30395508 C478.12869141 916.96782227 477.77935547 917.63168945 477.41943359 918.31567383 C476.75943359 918.31567383 476.09943359 918.31567383 475.41943359 918.31567383 C475.26087891 919.40235352 475.26087891 919.40235352 475.09912109 920.51098633 C474.3598253 923.56164369 473.23509284 925.5579557 471.54443359 928.19067383 C469.08117857 932.14609295 467.11544988 935.98140998 465.41943359 940.31567383 C464.75943359 940.31567383 464.09943359 940.31567383 463.41943359 940.31567383 C463.0153125 941.13745117 463.0153125 941.13745117 462.60302734 941.97583008 C461.27752083 944.59622085 459.88736174 947.17476748 458.48193359 949.75317383 C457.97791016 950.68000977 457.47388672 951.6068457 456.95458984 952.56176758 C456.1946875 953.92495117 456.1946875 953.92495117 455.41943359 955.31567383 C454.90251953 956.25540039 454.38560547 957.19512695 453.85302734 958.16333008 C453.37994141 958.87360352 452.90685547 959.58387695 452.41943359 960.31567383 C451.75943359 960.31567383 451.09943359 960.31567383 450.41943359 960.31567383 C450.32533203 960.85708008 450.23123047 961.39848633 450.13427734 961.95629883 C449.20804106 965.01338471 447.69489799 967.37336388 445.98193359 970.06567383 C445.05574219 971.54293945 445.05574219 971.54293945 444.11083984 973.05004883 C443.55267578 973.79770508 442.99451172 974.54536133 442.41943359 975.31567383 C441.75943359 975.31567383 441.09943359 975.31567383 440.41943359 975.31567383 C440.27505859 975.91379883 440.13068359 976.51192383 439.98193359 977.12817383 C439.05610385 980.72862284 438.28301933 982.91026181 435.41943359 985.31567383 C434.75943359 985.31567383 434.09943359 985.31567383 433.41943359 985.31567383 C433.26075806 986.1750354 433.26075806 986.1750354 433.09887695 987.05175781 C432.31285904 989.67078191 431.16957814 991.34022161 429.54833984 993.53833008 C428.9740625 994.32401367 428.39978516 995.10969727 427.80810547 995.91918945 C427.20546875 996.7306543 426.60283203 997.54211914 425.98193359 998.37817383 C424.7954187 999.99382651 423.60920814 1001.60970274 422.42333984 1003.22583008 C421.63165405 1004.29522827 421.63165405 1004.29522827 420.82397461 1005.38623047 C419.64870814 1007.00071525 418.52714258 1008.65411035 417.41943359 1010.31567383 C416.75943359 1010.31567383 416.09943359 1010.31567383 415.41943359 1010.31567383 C415.41943359 1010.97567383 415.41943359 1011.63567383 415.41943359 1012.31567383 C414.75943359 1012.31567383 414.09943359 1012.31567383 413.41943359 1012.31567383 C413.41943359 1013.30567383 413.41943359 1014.29567383 413.41943359 1015.31567383 C412.75943359 1015.31567383 412.09943359 1015.31567383 411.41943359 1015.31567383 C411.08943359 1016.63567383 410.75943359 1017.95567383 410.41943359 1019.31567383 C409.75943359 1019.31567383 409.09943359 1019.31567383 408.41943359 1019.31567383 C408.15130859 1019.89317383 407.88318359 1020.47067383 407.60693359 1021.06567383 C406.3901417 1023.37117425 405.1160948 1025.33623575 403.41943359 1027.31567383 C402.75943359 1027.31567383 402.09943359 1027.31567383 401.41943359 1027.31567383 C401.17193359 1028.03754883 400.92443359 1028.75942383 400.66943359 1029.50317383 C399.29673768 1032.59173964 397.69590063 1034.825788 395.41943359 1037.31567383 C394.75943359 1037.31567383 394.09943359 1037.31567383 393.41943359 1037.31567383 C393.41943359 1037.97567383 393.41943359 1038.63567383 393.41943359 1039.31567383 C392.75943359 1039.31567383 392.09943359 1039.31567383 391.41943359 1039.31567383 C391.15130859 1039.95504883 390.88318359 1040.59442383 390.60693359 1041.25317383 C389.41943359 1043.31567383 389.41943359 1043.31567383 386.41943359 1044.31567383 C385.81882126 1046.21746168 385.81882126 1046.21746168 385.41943359 1048.31567383 C384.75943359 1049.30567383 384.09943359 1050.29567383 383.41943359 1051.31567383 C382.75943359 1051.31567383 382.09943359 1051.31567383 381.41943359 1051.31567383 C381.08943359 1052.30567383 380.75943359 1053.29567383 380.41943359 1054.31567383 C379.75943359 1054.31567383 379.09943359 1054.31567383 378.41943359 1054.31567383 C378.41943359 1054.97567383 378.41943359 1055.63567383 378.41943359 1056.31567383 C377.75943359 1056.31567383 377.09943359 1056.31567383 376.41943359 1056.31567383 C376.15130859 1056.89833008 375.88318359 1057.48098633 375.60693359 1058.08129883 C374.40462369 1060.34353983 373.08117447 1062.12143701 371.41943359 1064.06567383 C370.90380859 1064.67926758 370.38818359 1065.29286133 369.85693359 1065.92504883 C368.41943359 1067.31567383 368.41943359 1067.31567383 366.41943359 1067.31567383 C366.41943359 1067.97567383 366.41943359 1068.63567383 366.41943359 1069.31567383 C365.19677734 1070.51489258 365.19677734 1070.51489258 363.35693359 1072.00317383 C358.08304046 1076.45034858 353.32288348 1081.3880758 348.5246582 1086.3359375 C347.89438721 1086.97764893 347.26411621 1087.61936035 346.61474609 1088.28051758 C345.76420654 1089.1563147 345.76420654 1089.1563147 344.89648438 1090.04980469 C343.41943359 1091.31567383 343.41943359 1091.31567383 341.41943359 1091.31567383 C341.08943359 1092.30567383 340.75943359 1093.29567383 340.41943359 1094.31567383 C339.75943359 1094.31567383 339.09943359 1094.31567383 338.41943359 1094.31567383 C338.41943359 1094.97567383 338.41943359 1095.63567383 338.41943359 1096.31567383 C337.42943359 1096.31567383 336.43943359 1096.31567383 335.41943359 1096.31567383 C335.08943359 1097.30567383 334.75943359 1098.29567383 334.41943359 1099.31567383 C333.42943359 1099.31567383 332.43943359 1099.31567383 331.41943359 1099.31567383 C331.15130859 1099.91379883 330.88318359 1100.51192383 330.60693359 1101.12817383 C329.42025953 1103.31415236 328.32344247 1104.72899977 326.41943359 1106.31567383 C325.75943359 1106.31567383 325.09943359 1106.31567383 324.41943359 1106.31567383 C324.08943359 1107.30567383 323.75943359 1108.29567383 323.41943359 1109.31567383 C322.75943359 1109.31567383 322.09943359 1109.31567383 321.41943359 1109.31567383 C321.41943359 1109.97567383 321.41943359 1110.63567383 321.41943359 1111.31567383 C318.85796789 1113.61216032 317.93975787 1114.31567383 314.41943359 1114.31567383 C314.41943359 1114.97567383 314.41943359 1115.63567383 314.41943359 1116.31567383 C308.94324312 1121.31567383 308.94324312 1121.31567383 306.41943359 1121.31567383 C306.41943359 1121.97567383 306.41943359 1122.63567383 306.41943359 1123.31567383 C303.85796789 1125.61216032 302.93975787 1126.31567383 299.41943359 1126.31567383 C299.41943359 1126.97567383 299.41943359 1127.63567383 299.41943359 1128.31567383 C298.75943359 1128.31567383 298.09943359 1128.31567383 297.41943359 1128.31567383 C297.08943359 1129.30567383 296.75943359 1130.29567383 296.41943359 1131.31567383 C294.12646484 1133.21801758 294.12646484 1133.21801758 291.23193359 1135.25317383 C289.74306641 1136.30311523 289.74306641 1136.30311523 288.22412109 1137.37426758 C287.29857422 1138.01493164 286.37302734 1138.6555957 285.41943359 1139.31567383 C284.76201172 1139.78102539 284.10458984 1140.24637695 283.42724609 1140.72583008 C279.69564327 1143.31567383 279.69564327 1143.31567383 277.41943359 1143.31567383 C277.08943359 1144.30567383 276.75943359 1145.29567383 276.41943359 1146.31567383 C274.41943359 1146.98234049 272.41943359 1147.64900716 270.41943359 1148.31567383 C270.08943359 1149.30567383 269.75943359 1150.29567383 269.41943359 1151.31567383 C266.81700946 1152.96387578 265.5569458 1153.31567383 262.41943359 1153.31567383 C262.08943359 1154.30567383 261.75943359 1155.29567383 261.41943359 1156.31567383 C258.41943359 1158.31567383 258.41943359 1158.31567383 255.41943359 1158.31567383 C255.41943359 1158.97567383 255.41943359 1159.63567383 255.41943359 1160.31567383 C252.46461868 1163.05943054 251.64471452 1163.31567383 247.41943359 1163.31567383 C247.08943359 1164.30567383 246.75943359 1165.29567383 246.41943359 1166.31567383 C245.09943359 1166.31567383 243.77943359 1166.31567383 242.41943359 1166.31567383 C242.41943359 1166.97567383 242.41943359 1167.63567383 242.41943359 1168.31567383 C239.85796789 1170.61216032 238.93975787 1171.31567383 235.41943359 1171.31567383 C235.41943359 1171.97567383 235.41943359 1172.63567383 235.41943359 1173.31567383 C220.57699412 1182.02754048 220.57699412 1182.02754048 214.41943359 1183.31567383 C214.41943359 1183.97567383 214.41943359 1184.63567383 214.41943359 1185.31567383 C211.05259445 1187.74727988 209.68592995 1188.31567383 205.41943359 1188.31567383 C205.41943359 1188.97567383 205.41943359 1189.63567383 205.41943359 1190.31567383 C201.6897822 1192.35002913 199.75038318 1193.31567383 195.41943359 1193.31567383 C195.41943359 1193.97567383 195.41943359 1194.63567383 195.41943359 1195.31567383 C193.76943359 1195.64567383 192.11943359 1195.97567383 190.41943359 1196.31567383 C190.41943359 1196.97567383 190.41943359 1197.63567383 190.41943359 1198.31567383 C187.04845976 1199.81388442 185.2150124 1200.31567383 181.41943359 1200.31567383 C181.08943359 1201.30567383 180.75943359 1202.29567383 180.41943359 1203.31567383 C178.31005859 1204.44848633 178.31005859 1204.44848633 175.66943359 1205.44067383 C174.80833984 1205.77325195 173.94724609 1206.10583008 173.06005859 1206.44848633 C170.52243902 1207.2818466 168.04734114 1207.85248149 165.41943359 1208.31567383 C165.41943359 1208.97567383 165.41943359 1209.63567383 165.41943359 1210.31567383 C164.15103834 1210.8218268 162.87960258 1211.32036482 161.60693359 1211.81567383 C160.89923828 1212.09411133 160.19154297 1212.37254883 159.46240234 1212.65942383 C157.41943359 1213.31567383 157.41943359 1213.31567383 154.41943359 1213.31567383 C154.41943359 1213.97567383 154.41943359 1214.63567383 154.41943359 1215.31567383 C152.43943359 1215.31567383 150.45943359 1215.31567383 148.41943359 1215.31567383 C148.41943359 1215.97567383 148.41943359 1216.63567383 148.41943359 1217.31567383 C146.43943359 1217.64567383 144.45943359 1217.97567383 142.41943359 1218.31567383 C142.41943359 1218.97567383 142.41943359 1219.63567383 142.41943359 1220.31567383 C140.43943359 1220.31567383 138.45943359 1220.31567383 136.41943359 1220.31567383 C136.08943359 1221.30567383 135.75943359 1222.29567383 135.41943359 1223.31567383 C133.76943359 1223.31567383 132.11943359 1223.31567383 130.41943359 1223.31567383 C130.41943359 1223.97567383 130.41943359 1224.63567383 130.41943359 1225.31567383 C128.10943359 1225.31567383 125.79943359 1225.31567383 123.41943359 1225.31567383 C123.41943359 1225.97567383 123.41943359 1226.63567383 123.41943359 1227.31567383 C114.99086217 1230.74424526 114.99086217 1230.74424526 110.41943359 1230.31567383 C110.41943359 1230.97567383 110.41943359 1231.63567383 110.41943359 1232.31567383 C108.10943359 1232.31567383 105.79943359 1232.31567383 103.41943359 1232.31567383 C103.41943359 1232.97567383 103.41943359 1233.63567383 103.41943359 1234.31567383 C94.94893018 1237.36966486 94.94893018 1237.36966486 90.41943359 1237.87817383 C89.42943359 1238.02254883 88.43943359 1238.16692383 87.41943359 1238.31567383 C87.08943359 1238.97567383 86.75943359 1239.63567383 86.41943359 1240.31567383 C84.09227359 1240.68968169 81.75825498 1241.02332116 79.41943359 1241.31567383 C79.08943359 1241.64567383 78.75943359 1241.97567383 78.41943359 1242.31567383 C76.08645926 1242.3566032 73.75238135 1242.35809106 71.41943359 1242.31567383 C71.41943359 1242.97567383 71.41943359 1243.63567383 71.41943359 1244.31567383 C68.2049209 1245.92293017 64.98330824 1245.37315568 61.41943359 1245.31567383 C61.41943359 1245.97567383 61.41943359 1246.63567383 61.41943359 1247.31567383 C58.11943359 1247.64567383 54.81943359 1247.97567383 51.41943359 1248.31567383 C51.41943359 1248.97567383 51.41943359 1249.63567383 51.41943359 1250.31567383 C50.78134766 1250.37625977 50.14326172 1250.4368457 49.48583984 1250.49926758 C48.65955078 1250.58305664 47.83326172 1250.6668457 46.98193359 1250.75317383 C46.15822266 1250.83438477 45.33451172 1250.9155957 44.48583984 1250.99926758 C42.43281334 1251.10498197 42.43281334 1251.10498197 41.41943359 1252.31567383 C38.87187255 1252.59873617 36.32433337 1252.76383168 33.76708984 1252.93676758 C31.23430587 1253.11053107 31.23430587 1253.11053107 29.41943359 1255.31567383 C27.10693359 1255.69458008 27.10693359 1255.69458008 24.41943359 1255.87817383 C20.78224585 1256.08784906 20.78224585 1256.08784906 17.41943359 1257.31567383 C15.10727848 1257.41354478 12.79225202 1257.44645005 10.47802734 1257.44848633 C9.79515152 1257.44944305 9.1122757 1257.45039978 8.40870667 1257.4513855 C6.96542265 1257.45206605 5.52213556 1257.45022042 4.07885742 1257.44604492 C1.86223531 1257.44068664 -0.35418492 1257.44599826 -2.57080078 1257.45239258 C-3.97119186 1257.45173194 -5.3715828 1257.45045106 -6.77197266 1257.44848633 C-8.05273682 1257.4473584 -9.33350098 1257.44623047 -10.65307617 1257.44506836 C-13.58056641 1257.31567383 -13.58056641 1257.31567383 -14.58056641 1256.31567383 C-16.86740979 1256.03373423 -19.15419913 1255.86790378 -21.45166016 1255.69458008 C-23.58056641 1255.31567383 -23.58056641 1255.31567383 -25.58056641 1253.31567383 C-27.60914798 1252.96208505 -27.60914798 1252.96208505 -29.95556641 1252.87817383 C-38.41905124 1252.18204304 -46.41746095 1249.79607263 -54.40478516 1247.00708008 C-57.50142149 1246.02305022 -60.64561404 1245.37571648 -63.83056641 1244.74536133 C-65.58056641 1244.31567383 -65.58056641 1244.31567383 -66.58056641 1243.31567383 C-67.57056641 1243.19192383 -68.56056641 1243.06817383 -69.58056641 1242.94067383 C-74.1207723 1242.36488888 -78.29130039 1240.86214389 -82.58056641 1239.31567383 C-82.58056641 1238.65567383 -82.58056641 1237.99567383 -82.58056641 1237.31567383 C-84.89056641 1237.31567383 -87.20056641 1237.31567383 -89.58056641 1237.31567383 C-89.58056641 1236.65567383 -89.58056641 1235.99567383 -89.58056641 1235.31567383 C-91.22025391 1235.37754883 -91.22025391 1235.37754883 -92.89306641 1235.44067383 C-96.58056641 1235.31567383 -96.58056641 1235.31567383 -99.58056641 1233.31567383 C-101.23606172 1232.93067492 -102.90280971 1232.58774248 -104.58056641 1232.31567383 C-104.58056641 1231.65567383 -104.58056641 1230.99567383 -104.58056641 1230.31567383 C-105.91087891 1230.19192383 -105.91087891 1230.19192383 -107.26806641 1230.06567383 C-115.64671689 1228.87116154 -123.92904193 1225.87452242 -131.58056641 1222.31567383 C-131.58056641 1221.65567383 -131.58056641 1220.99567383 -131.58056641 1220.31567383 C-132.75619141 1220.37754883 -132.75619141 1220.37754883 -133.95556641 1220.44067383 C-136.58056641 1220.31567383 -136.58056641 1220.31567383 -138.58056641 1218.31567383 C-141.15117952 1217.6679959 -141.15117952 1217.6679959 -143.58056641 1217.31567383 C-143.58056641 1216.65567383 -143.58056641 1215.99567383 -143.58056641 1215.31567383 C-144.25474609 1215.38270508 -144.92892578 1215.44973633 -145.62353516 1215.51879883 C-149.48705179 1215.25340535 -152.47948191 1213.7574679 -155.89306641 1212.06567383 C-156.55806152 1211.74501953 -157.22305664 1211.42436523 -157.90820312 1211.09399414 C-159.80366009 1210.17709175 -161.69256749 1209.24781069 -163.58056641 1208.31567383 C-164.43263672 1207.90317383 -165.28470703 1207.49067383 -166.16259766 1207.06567383 C-168.88082938 1205.73514358 -171.51322944 1204.35775943 -174.08056641 1202.75317383 C-176.90185145 1201.13093493 -179.73581987 1200.10251922 -182.81103516 1199.06176758 C-184.58056641 1198.31567383 -184.58056641 1198.31567383 -186.58056641 1196.31567383 C-187.89502852 1195.76798128 -189.23163762 1195.27192915 -190.58056641 1194.81567383 C-193.3224933 1193.88825738 -194.48682839 1193.40941185 -196.58056641 1191.31567383 C-198.64930675 1190.67315033 -198.64930675 1190.67315033 -200.58056641 1190.31567383 C-200.58056641 1189.65567383 -200.58056641 1188.99567383 -200.58056641 1188.31567383 C-201.24056641 1188.25379883 -201.90056641 1188.19192383 -202.58056641 1188.12817383 C-206.7022339 1187.01188888 -210.23807142 1184.97805817 -213.58056641 1182.31567383 C-213.58056641 1181.65567383 -213.58056641 1180.99567383 -213.58056641 1180.31567383 C-214.30244141 1180.20352539 -215.02431641 1180.09137695 -215.76806641 1179.97583008 C-223.30346118 1178.20710547 -230.16606851 1173.03213818 -236.76806641 1169.06567383 C-237.87537109 1168.40051758 -238.98267578 1167.73536133 -240.12353516 1167.05004883 C-240.93435547 1166.47770508 -241.74517578 1165.90536133 -242.58056641 1165.31567383 C-242.58056641 1164.65567383 -242.58056641 1163.99567383 -242.58056641 1163.31567383 C-243.15806641 1163.19192383 -243.73556641 1163.06817383 -244.33056641 1162.94067383 C-246.60392407 1162.30918559 -248.5059193 1161.42709192 -250.58056641 1160.31567383 C-250.58056641 1159.65567383 -250.58056641 1158.99567383 -250.58056641 1158.31567383 C-251.47775391 1158.13004883 -251.47775391 1158.13004883 -252.39306641 1157.94067383 C-254.58056641 1157.31567383 -254.58056641 1157.31567383 -257.58056641 1155.31567383 C-257.58056641 1154.65567383 -257.58056641 1153.99567383 -257.58056641 1153.31567383 C-258.11681641 1153.23317383 -258.65306641 1153.15067383 -259.20556641 1153.06567383 C-262.45397332 1152.03986112 -264.86808499 1150.35003489 -267.58056641 1148.31567383 C-267.58056641 1147.65567383 -267.58056641 1146.99567383 -267.58056641 1146.31567383 C-269.23056641 1145.98567383 -270.88056641 1145.65567383 -272.58056641 1145.31567383 C-272.58056641 1144.65567383 -272.58056641 1143.99567383 -272.58056641 1143.31567383 C-273.75619141 1142.85161133 -273.75619141 1142.85161133 -274.95556641 1142.37817383 C-277.58056641 1141.31567383 -277.58056641 1141.31567383 -279.58056641 1140.31567383 C-279.58056641 1139.65567383 -279.58056641 1138.99567383 -279.58056641 1138.31567383 C-280.78712891 1137.91348633 -280.78712891 1137.91348633 -282.01806641 1137.50317383 C-282.86369141 1137.11129883 -283.70931641 1136.71942383 -284.58056641 1136.31567383 C-284.91056641 1135.32567383 -285.24056641 1134.33567383 -285.58056641 1133.31567383 C-287.48235426 1132.7150615 -287.48235426 1132.7150615 -289.58056641 1132.31567383 C-290.57056641 1131.65567383 -291.56056641 1130.99567383 -292.58056641 1130.31567383 C-292.58056641 1129.65567383 -292.58056641 1128.99567383 -292.58056641 1128.31567383 C-293.24056641 1128.31567383 -293.90056641 1128.31567383 -294.58056641 1128.31567383 C-294.58056641 1127.65567383 -294.58056641 1126.99567383 -294.58056641 1126.31567383 C-295.14259766 1126.22157227 -295.70462891 1126.1274707 -296.28369141 1126.03051758 C-299.14588472 1125.13973292 -300.97827102 1123.72695501 -303.33056641 1121.87817383 C-304.52939453 1120.95198242 -304.52939453 1120.95198242 -305.75244141 1120.00708008 C-306.65736328 1119.16983398 -306.65736328 1119.16983398 -307.58056641 1118.31567383 C-307.58056641 1117.65567383 -307.58056641 1116.99567383 -307.58056641 1116.31567383 C-308.24056641 1116.31567383 -308.90056641 1116.31567383 -309.58056641 1116.31567383 C-309.58056641 1115.65567383 -309.58056641 1114.99567383 -309.58056641 1114.31567383 C-310.30244141 1114.06817383 -311.02431641 1113.82067383 -311.76806641 1113.56567383 C-314.85663222 1112.19297791 -317.09068058 1110.59214087 -319.58056641 1108.31567383 C-319.58056641 1107.65567383 -319.58056641 1106.99567383 -319.58056641 1106.31567383 C-320.53962891 1105.91348633 -320.53962891 1105.91348633 -321.51806641 1105.50317383 C-323.58056641 1104.31567383 -323.58056641 1104.31567383 -324.58056641 1101.31567383 C-325.32306641 1101.02692383 -326.06556641 1100.73817383 -326.83056641 1100.44067383 C-330.24430404 1099.04414479 -332.06326717 1096.96904329 -334.58056641 1094.31567383 C-335.24056641 1093.98567383 -335.90056641 1093.65567383 -336.58056641 1093.31567383 C-336.58056641 1092.65567383 -336.58056641 1091.99567383 -336.58056641 1091.31567383 C-337.39267578 1090.99083008 -337.39267578 1090.99083008 -338.22119141 1090.65942383 C-341.39701984 1088.85067386 -343.78784722 1086.39843584 -346.33056641 1083.81567383 C-346.83716797 1083.31680664 -347.34376953 1082.81793945 -347.86572266 1082.30395508 C-351.58056641 1078.56908522 -351.58056641 1078.56908522 -351.58056641 1076.31567383 C-352.11681641 1076.08879883 -352.65306641 1075.86192383 -353.20556641 1075.62817383 C-358.84708468 1072.51049268 -362.85154084 1068.04606266 -366.96728516 1063.18286133 C-368.53822803 1061.30197298 -368.53822803 1061.30197298 -370.28759766 1059.69848633 C-371.58056641 1058.31567383 -371.58056641 1058.31567383 -371.58056641 1056.31567383 C-372.24056641 1056.31567383 -372.90056641 1056.31567383 -373.58056641 1056.31567383 C-373.58056641 1055.65567383 -373.58056641 1054.99567383 -373.58056641 1054.31567383 C-374.24056641 1054.31567383 -374.90056641 1054.31567383 -375.58056641 1054.31567383 C-377.08837891 1052.88989258 -377.08837891 1052.88989258 -378.70556641 1051.00317383 C-379.24439453 1050.38829102 -379.78322266 1049.7734082 -380.33837891 1049.13989258 C-381.58056641 1047.31567383 -381.58056641 1047.31567383 -381.58056641 1044.31567383 C-382.24056641 1044.31567383 -382.90056641 1044.31567383 -383.58056641 1044.31567383 C-383.58056641 1043.65567383 -383.58056641 1042.99567383 -383.58056641 1042.31567383 C-384.57056641 1041.98567383 -385.56056641 1041.65567383 -386.58056641 1041.31567383 C-386.58056641 1040.65567383 -386.58056641 1039.99567383 -386.58056641 1039.31567383 C-387.24056641 1039.31567383 -387.90056641 1039.31567383 -388.58056641 1039.31567383 C-388.58056641 1038.65567383 -388.58056641 1037.99567383 -388.58056641 1037.31567383 C-389.57056641 1036.98567383 -390.56056641 1036.65567383 -391.58056641 1036.31567383 C-392.76806641 1033.75317383 -392.76806641 1033.75317383 -393.58056641 1031.31567383 C-394.24056641 1031.31567383 -394.90056641 1031.31567383 -395.58056641 1031.31567383 C-395.91056641 1029.99567383 -396.24056641 1028.67567383 -396.58056641 1027.31567383 C-397.24056641 1027.31567383 -397.90056641 1027.31567383 -398.58056641 1027.31567383 C-403.58056641 1021.83948335 -403.58056641 1021.83948335 -403.58056641 1019.31567383 C-404.24056641 1019.31567383 -404.90056641 1019.31567383 -405.58056641 1019.31567383 C-408.58056641 1014.93105844 -408.58056641 1014.93105844 -408.58056641 1012.31567383 C-409.57056641 1011.98567383 -410.56056641 1011.65567383 -411.58056641 1011.31567383 C-411.58056641 1010.65567383 -411.58056641 1009.99567383 -411.58056641 1009.31567383 C-412.24056641 1009.31567383 -412.90056641 1009.31567383 -413.58056641 1009.31567383 C-416.58056641 1004.93105844 -416.58056641 1004.93105844 -416.58056641 1002.31567383 C-417.24056641 1002.31567383 -417.90056641 1002.31567383 -418.58056641 1002.31567383 C-419.86962891 1000.88989258 -419.86962891 1000.88989258 -421.20556641 999.00317383 C-421.87458984 998.08084961 -421.87458984 998.08084961 -422.55712891 997.13989258 C-423.58056641 995.31567383 -423.58056641 995.31567383 -423.58056641 992.31567383 C-424.24056641 992.31567383 -424.90056641 992.31567383 -425.58056641 992.31567383 C-427.20556641 991.06567383 -427.20556641 991.06567383 -428.58056641 989.31567383 C-428.58056641 987.99567383 -428.58056641 986.67567383 -428.58056641 985.31567383 C-429.57056641 984.98567383 -430.56056641 984.65567383 -431.58056641 984.31567383 C-431.58056641 983.65567383 -431.58056641 982.99567383 -431.58056641 982.31567383 C-432.24056641 982.31567383 -432.90056641 982.31567383 -433.58056641 982.31567383 C-435.04119491 979.66828466 -435.58056641 978.42119049 -435.58056641 975.31567383 C-436.57056641 974.98567383 -437.56056641 974.65567383 -438.58056641 974.31567383 C-439.61348317 972.33247365 -440.61431631 970.33219577 -441.58056641 968.31567383 C-442.24056641 967.98567383 -442.90056641 967.65567383 -443.58056641 967.31567383 C-443.58056641 965.99567383 -443.58056641 964.67567383 -443.58056641 963.31567383 C-444.24056641 963.31567383 -444.90056641 963.31567383 -445.58056641 963.31567383 C-445.58056641 962.32567383 -445.58056641 961.33567383 -445.58056641 960.31567383 C-446.57056641 959.98567383 -447.56056641 959.65567383 -448.58056641 959.31567383 C-449.97509766 957.12817383 -449.97509766 957.12817383 -451.39306641 954.31567383 C-453.78747397 949.70088832 -456.41843886 945.48679751 -459.47900391 941.28833008 C-460.58056641 939.31567383 -460.58056641 939.31567383 -460.58056641 935.31567383 C-461.57056641 934.98567383 -462.56056641 934.65567383 -463.58056641 934.31567383 C-465.22876836 931.71324969 -465.58056641 930.45318604 -465.58056641 927.31567383 C-466.24056641 927.31567383 -466.90056641 927.31567383 -467.58056641 927.31567383 C-470.58056641 921.69067383 -470.58056641 921.69067383 -470.58056641 918.31567383 C-471.24056641 918.31567383 -471.90056641 918.31567383 -472.58056641 918.31567383 C-474.00219831 914.99853272 -474.9706575 911.87347579 -475.58056641 908.31567383 C-476.24056641 908.31567383 -476.90056641 908.31567383 -477.58056641 908.31567383 C-477.91056641 906.66567383 -478.24056641 905.01567383 -478.58056641 903.31567383 C-479.24056641 903.31567383 -479.90056641 903.31567383 -480.58056641 903.31567383 C-480.58056641 901.66567383 -480.58056641 900.01567383 -480.58056641 898.31567383 C-481.24056641 898.31567383 -481.90056641 898.31567383 -482.58056641 898.31567383 C-482.84869141 897.59379883 -483.11681641 896.87192383 -483.39306641 896.12817383 C-484.50778723 893.30433637 -484.50778723 893.30433637 -486.08056641 890.81567383 C-488.49762284 886.78724645 -489.78858539 882.93556307 -490.58056641 878.31567383 C-491.24056641 878.31567383 -491.90056641 878.31567383 -492.58056641 878.31567383 C-493.04462891 876.86161133 -493.04462891 876.86161133 -493.51806641 875.37817383 C-494.27579982 872.47501591 -494.27579982 872.47501591 -495.58056641 871.31567383 C-495.62120473 869.64950268 -495.62328741 867.98179288 -495.58056641 866.31567383 C-496.24056641 866.31567383 -496.90056641 866.31567383 -497.58056641 866.31567383 C-497.58056641 864.66567383 -497.58056641 863.01567383 -497.58056641 861.31567383 C-498.24056641 861.31567383 -498.90056641 861.31567383 -499.58056641 861.31567383 C-501.99742352 857.08617387 -502.92889784 854.19231392 -502.58056641 849.31567383 C-503.24056641 849.31567383 -503.90056641 849.31567383 -504.58056641 849.31567383 C-506.79911347 844.69370077 -507.96337799 841.5474322 -507.58056641 836.31567383 C-508.24056641 836.31567383 -508.90056641 836.31567383 -509.58056641 836.31567383 C-511.3416033 832.39336437 -512.86032441 828.60964234 -513.99072266 824.45239258 C-515.91571991 817.47905816 -517.96781023 810.58998339 -520.83056641 803.94067383 C-522.55718072 799.81298648 -522.96695822 796.75917965 -522.58056641 792.31567383 C-523.24056641 792.31567383 -523.90056641 792.31567383 -524.58056641 792.31567383 C-524.70431641 791.22254883 -524.82806641 790.12942383 -524.95556641 789.00317383 C-525.33521441 785.2418558 -525.33521441 785.2418558 -527.58056641 782.31567383 C-527.94198596 779.9865256 -528.27756165 777.65313905 -528.58056641 775.31567383 C-528.91056641 774.98567383 -529.24056641 774.65567383 -529.58056641 774.31567383 C-529.65236605 772.79639345 -529.66448648 771.27399901 -529.64306641 769.75317383 C-529.63404297 768.92688477 -529.62501953 768.1005957 -529.61572266 767.24926758 C-529.60412109 766.61118164 -529.59251953 765.9730957 -529.58056641 765.31567383 C-530.24056641 765.31567383 -530.90056641 765.31567383 -531.58056641 765.31567383 C-533.18782275 762.10116114 -532.63804826 758.87954847 -532.58056641 755.31567383 C-533.24056641 755.31567383 -533.90056641 755.31567383 -534.58056641 755.31567383 C-534.71333984 754.54481445 -534.84611328 753.77395508 -534.98291016 752.97973633 C-535.15951172 751.9768457 -535.33611328 750.97395508 -535.51806641 749.94067383 C-535.69208984 748.94293945 -535.86611328 747.94520508 -536.04541016 746.91723633 C-536.45768702 744.34657727 -536.45768702 744.34657727 -537.58056641 742.31567383 C-537.65052654 740.60864647 -537.66496794 738.8989938 -537.64306641 737.19067383 C-537.63404297 736.2805957 -537.62501953 735.37051758 -537.61572266 734.43286133 C-537.60412109 733.73418945 -537.59251953 733.03551758 -537.58056641 732.31567383 C-538.24056641 732.31567383 -538.90056641 732.31567383 -539.58056641 732.31567383 C-539.71333984 731.48422852 -539.84611328 730.6527832 -539.98291016 729.79614258 C-540.2478125 728.16612305 -540.2478125 728.16612305 -540.51806641 726.50317383 C-540.69208984 725.42422852 -540.86611328 724.3452832 -541.04541016 723.23364258 C-541.51928562 720.26634027 -541.51928562 720.26634027 -542.58056641 717.31567383 C-542.88755502 713.93027159 -543.08961236 710.54432321 -543.29931641 707.15161133 C-543.26796972 704.4169802 -543.26796972 704.4169802 -544.58056641 703.31567383 C-544.81784436 700.19339728 -544.97610296 697.07887088 -545.09814453 693.95043945 C-545.27205566 690.02383261 -545.27205566 690.02383261 -546.58056641 686.37036133 C-547.71701851 684.0353074 -547.87524199 682.38802179 -547.95947266 679.80395508 C-548.01071289 678.54421875 -548.01071289 678.54421875 -548.06298828 677.2590332 C-548.08941406 676.39084961 -548.11583984 675.52266602 -548.14306641 674.62817383 C-548.20274504 672.89495402 -548.2663321 671.16186284 -548.33447266 669.42895508 C-548.37036499 668.28100464 -548.37036499 668.28100464 -548.40698242 667.10986328 C-548.39082958 665.29350153 -548.39082958 665.29350153 -549.58056641 664.31567383 C-549.72824545 661.74746669 -549.81554287 659.20268166 -549.86181641 656.63208008 C-549.88022583 655.8613768 -549.89863525 655.09067352 -549.91760254 654.2966156 C-549.97653115 651.82388152 -550.02926235 649.35107718 -550.08056641 646.87817383 C-550.14811265 643.62932583 -550.22181427 640.38070406 -550.29931641 637.13208008 C-550.31289185 636.37995743 -550.32646729 635.62783478 -550.3404541 634.85292053 C-550.36351161 630.95580523 -550.36351161 630.95580523 -551.58056641 627.31567383 C-552.73692675 616.64957807 -552.72579038 605.92242131 -552.71427917 595.20809937 C-552.71615192 593.53229713 -552.71845445 591.85649534 -552.7211445 590.18069422 C-552.7272106 585.61799666 -552.72713512 581.05531756 -552.72595012 576.49261689 C-552.72574482 571.55613061 -552.73127683 566.61965006 -552.73600769 561.6831665 C-552.74428378 552.03208782 -552.74706106 542.38101525 -552.74762007 532.72993331 C-552.74809621 524.88851367 -552.75015583 517.04709604 -552.75332069 509.20567703 C-552.76211514 486.96326509 -552.76674139 464.72085796 -552.76599022 442.47844426 C-552.76595026 441.28149272 -552.76591031 440.08454117 -552.76586914 438.85131836 C-552.76582826 437.65290407 -552.76578738 436.45448977 -552.76574526 435.2197599 C-552.76533804 415.75983843 -552.7749299 396.29993623 -552.78900751 376.84002034 C-552.80335561 356.84847057 -552.81027871 336.85693022 -552.80941373 316.86537516 C-552.80908146 305.64524114 -552.81184249 294.4251274 -552.82259178 283.20499802 C-552.83167566 273.6626187 -552.8338891 264.12026886 -552.82708236 254.5778871 C-552.82380784 249.70840204 -552.82379419 244.83897361 -552.83243561 239.96949387 C-552.84025932 235.51521116 -552.8389118 231.06103042 -552.83015148 226.60675032 C-552.82860746 224.99271887 -552.83046629 223.37867997 -552.83601155 221.7646573 C-552.84303586 219.5757906 -552.83780649 217.38728517 -552.82945538 215.19843102 C-552.82967274 213.9812046 -552.82989011 212.76397818 -552.83011407 211.50986612 C-552.58273198 208.34339297 -551.87738584 206.18608463 -550.58056641 203.31567383 C-550.24203958 200.88875587 -550.24203958 200.88875587 -550.14306641 198.44067383 C-549.76860896 193.80849649 -548.65151816 190.45757734 -546.58056641 186.31567383 C-545.92056641 186.31567383 -545.26056641 186.31567383 -544.58056641 186.31567383 C-544.51869141 185.63504883 -544.45681641 184.95442383 -544.39306641 184.25317383 C-543.31655255 180.36116221 -541.32391609 177.28122629 -538.58056641 174.31567383 C-537.92056641 174.31567383 -537.26056641 174.31567383 -536.58056641 174.31567383 C-536.35369141 173.69692383 -536.12681641 173.07817383 -535.89306641 172.44067383 C-534.20126806 169.70157174 -532.5881248 169.26542911 -529.58056641 168.31567383 C-529.58056641 167.65567383 -529.58056641 166.99567383 -529.58056641 166.31567383 C-528.92056641 166.31567383 -528.26056641 166.31567383 -527.58056641 166.31567383 C-527.58056641 165.65567383 -527.58056641 164.99567383 -527.58056641 164.31567383 C-526.00848416 163.35942695 -524.42193143 162.42697471 -522.83056641 161.50317383 C-521.50798828 160.72006836 -521.50798828 160.72006836 -520.15869141 159.92114258 C-509.248446 155.02582504 -498.41829134 154.86161074 -486.70556641 154.83911133 C-485.00592841 154.8247697 -483.30630187 154.80900712 -481.60668945 154.79190063 C-477.16963969 154.75037302 -472.73266109 154.72515767 -468.29547119 154.70440674 C-461.16713722 154.6683492 -454.03897833 154.60752068 -446.91082764 154.54591751 C-444.42915893 154.52688809 -441.94753751 154.5151215 -439.46582031 154.50448608 C-437.94807837 154.49427606 -436.43033741 154.48391831 -434.91259766 154.47338867 C-433.88243782 154.47182518 -433.88243782 154.47182518 -432.83146667 154.4702301 C-429.58429121 154.44238946 -426.69857871 154.22052258 -423.58056641 153.31567383 C-421.42265106 153.17978628 -419.26153195 153.09157166 -417.10009766 153.03442383 C-415.85421875 152.99704102 -414.60833984 152.9596582 -413.32470703 152.92114258 C-410.69190294 152.85051594 -408.05909033 152.78020622 -405.42626953 152.71020508 C-404.18425781 152.67282227 -402.94224609 152.63543945 -401.66259766 152.59692383 C-400.52024658 152.56663086 -399.37789551 152.53633789 -398.20092773 152.50512695 C-395.65509642 152.60829546 -395.65509642 152.60829546 -394.58056641 151.31567383 C-393.13109107 151.10132266 -391.67288371 150.94517633 -390.21337891 150.81567383 C-389.32779297 150.73317383 -388.44220703 150.65067383 -387.52978516 150.56567383 C-386.59779297 150.48317383 -385.66580078 150.40067383 -384.70556641 150.31567383 C-382.87454621 150.15223548 -381.04379927 149.98569836 -379.21337891 149.81567383 C-378.39756348 149.74348633 -377.58174805 149.67129883 -376.74121094 149.59692383 C-374.40243936 149.3624791 -374.40243936 149.3624791 -371.58056641 148.31567383 C-367.96723587 148.00632805 -364.3533131 147.80615248 -360.73291016 147.59692383 C-357.68115316 147.51845043 -357.68115316 147.51845043 -355.58056641 146.31567383 C-353.64907764 145.96794741 -351.70993134 145.66229191 -349.76806641 145.37817383 C-348.59759766 145.20286133 -347.42712891 145.02754883 -346.22119141 144.84692383 C-343.89907304 144.50807394 -341.57621693 144.17421616 -339.25244141 143.84692383 C-332.88584053 142.92422805 -326.74193503 141.68211988 -320.52197266 140.04223633 C-316.59981643 139.07341686 -312.64836159 138.39540008 -308.66259766 137.74536133 C-306.60026951 137.51857448 -306.60026951 137.51857448 -305.58056641 136.31567383 C-303.59774459 136.08434462 -301.61484344 135.85365115 -299.63134766 135.62817383 C-297.07324671 135.23836797 -294.94792462 134.3475992 -292.58056641 133.31567383 C-288.82031245 132.10955464 -285.24781153 131.22536735 -281.33056641 130.81567383 C-277.50954614 130.58600903 -277.50954614 130.58600903 -274.58056641 128.31567383 C-272.40564838 127.8009338 -270.21514001 127.35066561 -268.01806641 126.94067383 C-262.71153484 125.86303972 -258.02829202 124.43094405 -253.07666016 122.28442383 C-250.25794069 121.19046072 -247.46247292 120.49886525 -244.51806641 119.81567383 C-239.96216025 118.74369591 -235.9632688 117.29253884 -231.74072266 115.30004883 C-226.59624819 112.95573135 -221.31874595 110.76036613 -215.58056641 111.31567383 C-215.58056641 110.65567383 -215.58056641 109.99567383 -215.58056641 109.31567383 C-214.81873047 109.07333008 -214.05689453 108.83098633 -213.27197266 108.58129883 C-207.63549084 106.7517292 -202.17870287 104.80462274 -196.79931641 102.31958008 C-193.55790272 100.85295452 -190.25072133 99.56555612 -186.93994141 98.26489258 C-184.83306503 97.41725854 -182.77203144 96.50618035 -180.70556641 95.56567383 C-177.58056641 94.31567383 -177.58056641 94.31567383 -173.58056641 94.31567383 C-173.58056641 93.65567383 -173.58056641 92.99567383 -173.58056641 92.31567383 C-172.46681641 91.83098633 -171.35306641 91.34629883 -170.20556641 90.84692383 C-158.39237348 85.67253929 -146.75990174 80.22826303 -135.42431641 74.06958008 C-134.74780029 73.7028418 -134.07128418 73.33610352 -133.37426758 72.95825195 C-132.09209069 72.2592562 -130.81333956 71.55392371 -129.53881836 70.84106445 C-126.23583166 69.03231891 -123.32337987 67.81612535 -119.58056641 67.31567383 C-119.58056641 66.65567383 -119.58056641 65.99567383 -119.58056641 65.31567383 C-118.90251953 64.9521582 -118.22447266 64.58864258 -117.52587891 64.21411133 C-111.83236397 61.13866697 -106.25334701 57.95542574 -100.77197266 54.51489258 C-98.68330195 53.37189453 -96.90667123 52.76605859 -94.58056641 52.31567383 C-94.58056641 51.65567383 -94.58056641 50.99567383 -94.58056641 50.31567383 C-91.67507758 48.27397898 -90.17914595 47.31567383 -86.58056641 47.31567383 C-86.58056641 46.65567383 -86.58056641 45.99567383 -86.58056641 45.31567383 C-82.19595102 42.31567383 -82.19595102 42.31567383 -79.58056641 42.31567383 C-79.58056641 41.65567383 -79.58056641 40.99567383 -79.58056641 40.31567383 C-77.56884766 38.87817383 -77.56884766 38.87817383 -74.89306641 37.31567383 C-74.02294922 36.80004883 -73.15283203 36.28442383 -72.25634766 35.75317383 C-69.74409446 34.40352539 -67.24852726 33.31555825 -64.58056641 32.31567383 C-64.58056641 31.65567383 -64.58056641 30.99567383 -64.58056641 30.31567383 C-60.19595102 27.31567383 -60.19595102 27.31567383 -57.58056641 27.31567383 C-57.58056641 26.65567383 -57.58056641 25.99567383 -57.58056641 25.31567383 C-55.88565026 23.91298461 -54.12273141 22.59177037 -52.33056641 21.31567383 C-51.35603516 20.61442383 -50.38150391 19.91317383 -49.37744141 19.19067383 C-47.14454569 17.6937605 -45.01792569 16.42989521 -42.58056641 15.31567383 C-42.58056641 14.65567383 -42.58056641 13.99567383 -42.58056641 13.31567383 C-40.58504152 11.90230206 -38.61257852 10.62845762 -36.51806641 9.37817383 C-35.39271484 8.68852539 -34.26736328 7.99887695 -33.10791016 7.28833008 C-22.26137896 1.04007894 -12.25367753 -0.03543042 0 0 Z M2.41943359 84.31567383 C0.4790902 85.58216153 -1.45774288 86.85402845 -3.39306641 88.12817383 C-4.47201172 88.83586914 -5.55095703 89.54356445 -6.66259766 90.27270508 C-8.94783814 91.87267934 -10.65332403 93.35558073 -12.58056641 95.31567383 C-14.66348101 96.65781957 -16.79133554 97.89163219 -18.93603516 99.13208008 C-19.47873047 99.52266602 -20.02142578 99.91325195 -20.58056641 100.31567383 C-20.58056641 100.97567383 -20.58056641 101.63567383 -20.58056641 102.31567383 C-21.13099609 102.40204102 -21.68142578 102.4884082 -22.24853516 102.57739258 C-25.30695114 103.54563483 -27.34522884 105.18576301 -29.89306641 107.12817383 C-35.23348199 111.10856358 -40.56969264 114.43045442 -46.58056641 117.31567383 C-46.58056641 117.97567383 -46.58056641 118.63567383 -46.58056641 119.31567383 C-47.15806641 119.42524414 -47.73556641 119.53481445 -48.33056641 119.64770508 C-50.8560714 120.39746437 -52.44811171 121.46441391 -54.58056641 123.00317383 C-59.95507246 126.70880154 -65.69913803 129.50930699 -71.58056641 132.31567383 C-71.58056641 132.97567383 -71.58056641 133.63567383 -71.58056641 134.31567383 C-72.30630859 134.42266602 -73.03205078 134.5296582 -73.77978516 134.63989258 C-76.8022395 135.3691598 -78.78068462 136.46114507 -81.39306641 138.12817383 C-88.5078681 142.53808789 -95.91291478 145.97882544 -103.58056641 149.31567383 C-103.58056641 149.97567383 -103.58056641 150.63567383 -103.58056641 151.31567383 C-104.31275391 151.43555664 -105.04494141 151.55543945 -105.79931641 151.67895508 C-108.55548108 152.30993098 -110.59072901 153.18577699 -113.08056641 154.50317383 C-119.15972522 157.63759895 -125.36035357 160.47406581 -131.58056641 163.31567383 C-133.13130859 164.0369043 -133.13130859 164.0369043 -134.71337891 164.77270508 C-135.68017578 165.22000977 -136.64697266 165.66731445 -137.64306641 166.12817383 C-138.50029297 166.52649414 -139.35751953 166.92481445 -140.24072266 167.33520508 C-142.35204001 168.21991402 -144.34701138 168.83594954 -146.58056641 169.31567383 C-146.58056641 169.97567383 -146.58056641 170.63567383 -146.58056641 171.31567383 C-147.24056641 171.23317383 -147.90056641 171.15067383 -148.58056641 171.06567383 C-152.00036788 171.35065728 -154.27423808 172.625456 -157.28857422 174.17944336 C-161.24903269 176.14279804 -165.34989519 177.74659392 -169.45556641 179.37817383 C-170.28958984 179.71655273 -171.12361328 180.05493164 -171.98291016 180.40356445 C-177.02012596 182.41611513 -182.06388068 184.13622349 -187.28515625 185.60864258 C-189.70472026 186.35391564 -191.99969849 187.26723297 -194.33056641 188.25317383 C-199.5340545 190.40351118 -204.86727933 191.86898635 -210.28759766 193.37036133 C-216.90519674 194.96246126 -216.90519674 194.96246126 -222.58056641 198.31567383 C-224.06556641 198.50129883 -224.06556641 198.50129883 -225.58056641 198.69067383 C-230.1314911 199.28508032 -234.27115169 200.78488847 -238.58056641 202.31567383 C-243.74847304 204.13069986 -248.8290867 205.66637002 -254.19384766 206.78051758 C-256.87604808 207.38192749 -259.5000499 208.12354705 -262.14306641 208.87817383 C-265.44795327 209.80391245 -268.60470644 210.52287985 -272.01806641 210.87817383 C-275.4154097 211.09357213 -275.4154097 211.09357213 -277.58056641 212.31567383 C-279.75223637 213.40150881 -281.36720619 213.61046729 -283.76806641 213.87817383 C-287.36247579 213.89028917 -287.36247579 213.89028917 -288.58056641 215.31567383 C-290.76931683 215.60057316 -292.95850873 215.76326324 -295.15869141 215.93676758 C-297.61858864 216.22288025 -297.61858864 216.22288025 -299.9050293 217.28833008 C-302.6060253 218.32544945 -304.94664561 218.77890035 -307.81103516 219.13208008 C-308.77847656 219.25647461 -309.74591797 219.38086914 -310.74267578 219.5090332 C-311.74105469 219.63084961 -312.73943359 219.75266602 -313.76806641 219.87817383 C-315.76195422 220.12629643 -317.75546825 220.37744745 -319.74853516 220.63208008 C-320.62791748 220.73979736 -321.5072998 220.84751465 -322.41333008 220.95849609 C-324.62085324 221.21256124 -324.62085324 221.21256124 -326.58056641 222.31567383 C-328.72126476 222.6805332 -330.86827489 223.00890313 -333.01806641 223.31567383 C-336.36173157 223.79387399 -339.37492504 224.24712671 -342.58056641 225.31567383 C-346.00849133 225.57465661 -349.43050956 225.75808538 -352.86376953 225.92114258 C-356.85199613 226.0559887 -356.85199613 226.0559887 -360.58056641 227.31567383 C-362.19813218 227.52406521 -363.82220938 227.68319358 -365.44775391 227.81567383 C-366.41583984 227.89817383 -367.38392578 227.98067383 -368.38134766 228.06567383 C-369.39583984 228.14817383 -370.41033203 228.23067383 -371.45556641 228.31567383 C-373.45320764 228.47937298 -375.45061718 228.64593047 -377.44775391 228.81567383 C-378.33575684 228.88786133 -379.22375977 228.96004883 -380.13867188 229.03442383 C-382.51120708 229.24640381 -382.51120708 229.24640381 -384.48217773 229.8293457 C-387.42275059 230.51086067 -390.2717989 230.52023888 -393.28759766 230.59692383 C-394.59664063 230.63430664 -395.90568359 230.67168945 -397.25439453 230.71020508 C-398.63393971 230.74583366 -400.01349726 230.78098604 -401.39306641 230.81567383 C-404.08725814 230.88394583 -406.78111204 230.95771732 -409.47509766 231.03442383 C-410.66981689 231.0647168 -411.86453613 231.09500977 -413.09545898 231.1262207 C-416.50893384 231.24814162 -416.50893384 231.24814162 -419.55839539 231.80773926 C-424.81896109 232.57881342 -430.11314198 232.54990951 -435.42041016 232.63208008 C-436.54250381 232.65286118 -437.66459747 232.67364227 -438.82069397 232.6950531 C-442.38642566 232.76016013 -445.95222768 232.81925223 -449.51806641 232.87817383 C-451.94320373 232.92139602 -454.36833409 232.96501147 -456.79345703 233.0090332 C-462.72242028 233.11580147 -468.65145267 233.2176383 -474.58056641 233.31567383 C-474.60343603 282.31133194 -474.62106629 331.30698951 -474.63163174 380.3026519 C-474.6328825 386.08197628 -474.63417682 391.86130064 -474.63549805 397.640625 C-474.63576036 398.79122476 -474.63602267 399.94182451 -474.63629293 401.12729093 C-474.64064881 419.77796142 -474.64853591 438.42862885 -474.6577192 457.07929752 C-474.66705801 476.20477169 -474.6726225 495.33024425 -474.6746549 514.4557206 C-474.67602965 526.26504057 -474.68037769 538.07435186 -474.68848287 549.88366916 C-474.69375313 557.97262685 -474.69537006 566.06158003 -474.69406778 574.15053932 C-474.69342485 578.82320677 -474.69443699 583.49585901 -474.69977188 588.16852379 C-474.70461483 592.44131536 -474.7048991 596.71408141 -474.7014653 600.98687413 C-474.7010405 602.53738882 -474.70232869 604.08790507 -474.70544959 605.63841669 C-474.70942986 607.73692375 -474.70731952 609.83533721 -474.70361423 611.93384266 C-474.70399396 613.10224212 -474.70437368 614.27064157 -474.7047649 615.47444707 C-474.70743842 618.39255088 -474.70743842 618.39255088 -473.58056641 621.31567383 C-473.37318671 623.56228716 -473.21361002 625.81343557 -473.08056641 628.06567383 C-473.0196582 629.04745605 -473.0196582 629.04745605 -472.95751953 630.04907227 C-472.78421417 632.84462111 -472.62034356 635.64070522 -472.45556641 638.43676758 C-472.33381262 640.47994837 -472.20730322 642.52279707 -472.08056641 644.56567383 C-472.00837891 645.78770508 -471.93619141 647.00973633 -471.86181641 648.26879883 C-471.69338904 651.35668763 -471.69338904 651.35668763 -470.58056641 654.31567383 C-470.3208524 657.98774133 -470.13732432 661.6541611 -469.97509766 665.33129883 C-470.14411082 669.13631355 -470.14411082 669.13631355 -468.58056641 672.31567383 C-468.20541723 674.96223406 -467.8743693 677.59747108 -467.58056641 680.25317383 C-467.17477963 685.44080689 -467.17477963 685.44080689 -465.58056641 690.31567383 C-465.40074518 692.06250859 -465.26035478 693.8135292 -465.14306641 695.56567383 C-464.79069057 699.80519565 -464.06009095 703.31225446 -462.58056641 707.31567383 C-461.18472619 712.60570596 -460.32179219 717.8173499 -459.92431641 723.27270508 C-459.68813372 725.33602585 -459.68813372 725.33602585 -458.65087891 727.06176758 C-457.06278007 730.40604871 -456.58235555 733.94564674 -455.95556641 737.56567383 C-455.82150391 738.31075195 -455.68744141 739.05583008 -455.54931641 739.82348633 C-455.22089965 741.65323683 -454.8999866 743.48433137 -454.58056641 745.31567383 C-453.92056641 745.31567383 -453.26056641 745.31567383 -452.58056641 745.31567383 C-452.62181641 746.38817383 -452.66306641 747.46067383 -452.70556641 748.56567383 C-452.58225562 752.26499746 -452.16767484 753.20471129 -450.58056641 756.31567383 C-450.08196076 758.1594189 -449.62724878 760.01532991 -449.20556641 761.87817383 C-447.97675733 766.98677602 -446.41392919 771.83768484 -444.54541016 776.74536133 C-443.4812158 779.58034063 -442.53202037 782.44077696 -441.58056641 785.31567383 C-437.90497384 796.12825617 -434.12524767 806.83260904 -429.58056641 817.31567383 C-428.78673807 819.23144621 -427.99513788 821.1481431 -427.20556641 823.06567383 C-426.3328248 825.14995425 -425.45765356 827.23321833 -424.58056641 829.31567383 C-424.33081055 829.9136377 -424.08105469 830.51160156 -423.82373047 831.12768555 C-419.60682986 841.18476123 -414.79124495 850.78729815 -409.61328125 860.38061523 C-407.16310925 864.97164674 -404.88358224 869.64973713 -402.58056641 874.31567383 C-401.62324624 876.23284675 -400.66497155 878.14954344 -399.70556641 880.06567383 C-398.99723307 881.48234049 -398.28889974 882.89900716 -397.58056641 884.31567383 C-396.92056641 884.31567383 -396.26056641 884.31567383 -395.58056641 884.31567383 C-395.47744141 885.0452832 -395.37431641 885.77489258 -395.26806641 886.52661133 C-394.515278 889.58053704 -393.4006692 891.39428001 -391.58056641 893.94067383 C-389.76822527 896.49363514 -388.57827265 898.32255508 -387.58056641 901.31567383 C-386.92056641 901.31567383 -386.26056641 901.31567383 -385.58056641 901.31567383 C-385.48001953 901.87125977 -385.37947266 902.4268457 -385.27587891 902.99926758 C-384.42414237 905.83679434 -383.08214678 907.90183286 -381.45556641 910.37817383 C-379.0782338 914.02086088 -376.74031014 917.67688898 -374.45556641 921.37817383 C-364.86989419 936.4475414 -353.85173694 950.86087431 -342.62353516 964.73364258 C-339.56581516 968.59817971 -336.66245921 972.57465424 -333.75634766 976.55395508 C-331.53882927 979.36865076 -329.13686303 981.8093374 -326.58056641 984.31567383 C-325.66636624 985.4046823 -324.76600736 986.50582117 -323.89306641 987.62817383 C-323.12994141 988.51504883 -322.36681641 989.40192383 -321.58056641 990.31567383 C-320.92056641 990.31567383 -320.26056641 990.31567383 -319.58056641 990.31567383 C-319.33306641 990.87254883 -319.08556641 991.42942383 -318.83056641 992.00317383 C-317.35131823 994.73978296 -315.64589201 996.99218252 -313.58056641 999.31567383 C-312.92056641 999.31567383 -312.26056641 999.31567383 -311.58056641 999.31567383 C-311.37729736 999.84418945 -311.17402832 1000.37270508 -310.96459961 1000.91723633 C-308.97290903 1004.36870365 -306.25886068 1006.90243468 -303.43603516 1009.69067383 C-302.52583366 1010.60018799 -302.52583366 1010.60018799 -301.59724426 1011.52807617 C-300.31434627 1012.80795771 -299.02902332 1014.08541256 -297.74145508 1015.3605957 C-295.78037852 1017.30347596 -293.82736252 1019.25417836 -291.87548828 1021.20629883 C-290.62530684 1022.45156212 -289.37467046 1023.69636889 -288.12353516 1024.94067383 C-287.54314987 1025.51994629 -286.96276459 1026.09921875 -286.36479187 1026.69604492 C-281.2019298 1032.56867655 -281.2019298 1032.56867655 -274.58056641 1035.31567383 C-274.58056641 1035.97567383 -274.58056641 1036.63567383 -274.58056641 1037.31567383 C-273.92056641 1037.31567383 -273.26056641 1037.31567383 -272.58056641 1037.31567383 C-272.58056641 1037.97567383 -272.58056641 1038.63567383 -272.58056641 1039.31567383 C-270.86724652 1041.12634756 -270.86724652 1041.12634756 -268.70556641 1042.94067383 C-267.98626953 1043.57231445 -267.26697266 1044.20395508 -266.52587891 1044.85473633 C-264.71949708 1046.51584506 -264.71949708 1046.51584506 -262.58056641 1046.31567383 C-262.58056641 1046.97567383 -262.58056641 1047.63567383 -262.58056641 1048.31567383 C-260.90370409 1049.85775825 -260.90370409 1049.85775825 -258.70556641 1051.44067383 C-255.37336536 1053.95799082 -252.07868441 1056.50305551 -248.83056641 1059.12817383 C-238.65454103 1067.27212041 -228.28966405 1075.01094527 -217.61181641 1082.47973633 C-214.18876005 1084.87683911 -210.81628709 1087.33206432 -207.45556641 1089.81567383 C-204.19982913 1092.1963706 -200.96663429 1094.35507097 -197.42431641 1096.27661133 C-195.08235644 1097.5964447 -192.84057372 1099.04746323 -190.58056641 1100.50317383 C-180.72322713 1106.8042988 -170.845633 1112.83435201 -160.30712891 1117.93676758 C-157.8145666 1119.19733275 -155.49981676 1120.57084454 -153.14306641 1122.06567383 C-146.34182366 1126.25700879 -139.02487615 1129.47005741 -131.79931641 1132.85083008 C-127.44888896 1134.88700952 -123.153592 1137.01741227 -118.875 1139.20019531 C-115.70484597 1140.74142044 -112.45469237 1142.02479595 -109.17041016 1143.30004883 C-106.51438295 1144.34162813 -103.89317414 1145.44860671 -101.26806641 1146.56567383 C-88.80052487 1151.76853677 -76.20178165 1156.71326125 -63.23291016 1160.51879883 C-60.24308194 1161.41706828 -57.35221563 1162.48555656 -54.43994141 1163.60473633 C-45.6894398 1166.95051636 -36.66601765 1169.10447616 -27.58056641 1171.31567383 C-24.70451266 1172.01979124 -21.82981898 1172.72924512 -18.95556641 1173.44067383 C-17.68455078 1173.75262695 -16.41353516 1174.06458008 -15.10400391 1174.38598633 C-11.58056641 1175.31567383 -11.58056641 1175.31567383 -8.58837891 1176.40942383 C1.16678346 1179.34864158 11.69270126 1177.48098661 21.13818359 1174.38598633 C24.17799492 1173.39442882 27.22491244 1172.58975108 30.33056641 1171.83374023 C33.92198169 1170.94302223 37.48137041 1169.93781717 41.04443359 1168.94067383 C42.21522461 1168.61305054 42.21522461 1168.61305054 43.40966797 1168.27880859 C44.99410419 1167.83500478 46.57841592 1167.39075626 48.16259766 1166.94604492 C50.22286649 1166.37057823 52.28538697 1165.80433989 54.34912109 1165.24145508 C60.26867609 1163.60289117 65.96318392 1161.8110958 71.62646484 1159.43676758 C75.18415841 1158.00871436 78.79858815 1156.75925183 82.41943359 1155.50317383 C88.64535008 1153.32926574 94.82937813 1151.0645904 100.98193359 1148.69067383 C102.06958008 1148.27531372 102.06958008 1148.27531372 103.17919922 1147.8515625 C107.46680436 1146.18245907 111.56201922 1144.29022885 115.6574707 1142.19506836 C117.70077852 1141.17525476 119.77538145 1140.3496929 121.91943359 1139.56567383 C128.59880663 1136.95111802 134.92009909 1133.63609891 141.30517578 1130.38452148 C143.39104932 1129.33002329 145.48514136 1128.29430212 147.58349609 1127.26489258 C154.76995024 1123.73275592 161.7762232 1120.05142489 168.65771484 1115.94458008 C171.21451771 1114.43653652 173.79895672 1113.02169874 176.41943359 1111.62817383 C187.80249631 1105.46441935 199.19525853 1098.89412298 209.67724609 1091.28442383 C212.85551042 1089.00259303 216.08520043 1086.80396837 219.3203125 1084.60375977 C225.6130083 1080.32303081 231.90071938 1076.03362122 238.10693359 1071.62817383 C238.95642578 1071.02618164 239.80591797 1070.42418945 240.68115234 1069.80395508 C241.25478516 1069.31282227 241.82841797 1068.82168945 242.41943359 1068.31567383 C242.41943359 1067.65567383 242.41943359 1066.99567383 242.41943359 1066.31567383 C243.13486328 1066.06817383 243.85029297 1065.82067383 244.58740234 1065.56567383 C247.73353066 1064.17703788 250.05754322 1062.47103437 252.73193359 1060.31567383 C253.61494141 1059.61442383 254.49794922 1058.91317383 255.40771484 1058.19067383 C256.07158203 1057.57192383 256.73544922 1056.95317383 257.41943359 1056.31567383 C257.41943359 1055.65567383 257.41943359 1054.99567383 257.41943359 1054.31567383 C257.97888672 1054.06430664 258.53833984 1053.81293945 259.11474609 1053.55395508 C267.52239965 1049.03662257 274.65952264 1041.35896722 281.55957031 1034.83398438 C284.08996768 1032.4460266 286.58015923 1030.19092833 289.33349609 1028.05395508 C290.02185547 1027.48032227 290.71021484 1026.90668945 291.41943359 1026.31567383 C291.41943359 1025.65567383 291.41943359 1024.99567383 291.41943359 1024.31567383 C292.05880859 1024.04754883 292.69818359 1023.77942383 293.35693359 1023.50317383 C295.75075046 1022.42899631 295.75075046 1022.42899631 296.41943359 1019.31567383 C297.75276693 1018.64900716 299.08610026 1017.98234049 300.41943359 1017.31567383 C300.74943359 1016.32567383 301.07943359 1015.33567383 301.41943359 1014.31567383 C302.75276693 1013.64900716 304.08610026 1012.98234049 305.41943359 1012.31567383 C305.74943359 1011.32567383 306.07943359 1010.33567383 306.41943359 1009.31567383 C307.7347677 1008.61416231 309.07060951 1007.95041457 310.41943359 1007.31567383 C312.17059089 1005.89899913 312.17059089 1005.89899913 313.41943359 1004.31567383 C313.41943359 1003.65567383 313.41943359 1002.99567383 313.41943359 1002.31567383 C314.07943359 1002.31567383 314.73943359 1002.31567383 315.41943359 1002.31567383 C316.92217246 1000.86884331 316.92217246 1000.86884331 318.48193359 998.94067383 C322.10747884 994.65732924 325.88142907 990.5319525 329.69677734 986.41723633 C331.63074761 984.51077561 331.63074761 984.51077561 331.41943359 982.31567383 C332.07943359 982.31567383 332.73943359 982.31567383 333.41943359 982.31567383 C335.46399419 980.14302728 335.46399419 980.14302728 337.54443359 977.44067383 C338.26888672 976.53575195 338.99333984 975.63083008 339.73974609 974.69848633 C341.61148593 972.52911572 341.61148593 972.52911572 341.41943359 970.31567383 C342.07943359 970.31567383 342.73943359 970.31567383 343.41943359 970.31567383 C345.21482915 968.22595113 346.89004801 966.13725301 348.54443359 963.94067383 C349.01236328 963.33739258 349.48029297 962.73411133 349.96240234 962.11254883 C352.55557598 959.05832442 352.55557598 959.05832442 353.41943359 955.31567383 C354.07943359 955.31567383 354.73943359 955.31567383 355.41943359 955.31567383 C356.82162736 953.65520853 356.82162736 953.65520853 358.21240234 951.47583008 C358.76089844 950.65920898 359.30939453 949.84258789 359.87451172 949.0012207 C360.44621094 948.13561523 361.01791016 947.27000977 361.60693359 946.37817383 C364.96090759 941.33351516 368.32235631 936.3677788 372.09521484 931.62426758 C374.96656754 927.99346002 377.19444915 924.3711094 379.41943359 920.31567383 C381.15008162 917.53944037 382.9416966 914.80375654 384.73193359 912.06567383 C385.71129495 910.55798778 386.69046175 909.05017533 387.66943359 907.54223633 C389.2722442 905.07780554 390.87657191 902.61438209 392.48193359 900.15161133 C396.438836 894.02194555 400.00038655 887.75893938 403.41943359 881.31567383 C404.03689453 880.17227539 404.65435547 879.02887695 405.29052734 877.85083008 C409.87926394 869.34132322 414.25704997 860.73897582 418.54394531 852.07397461 C419.7328695 849.68617986 420.95429477 847.31521117 422.16943359 844.94067383 C424.18056543 840.93186254 425.84324602 836.8395565 427.46240234 832.65942383 C428.30774748 830.58919085 429.24406147 828.66174251 430.29443359 826.69067383 C433.31772796 820.82192594 435.40038751 814.52510807 437.67138672 808.33764648 C438.78806117 805.31927253 439.94672536 802.3175379 441.10693359 799.31567383 C441.51169922 798.26250977 441.91646484 797.2093457 442.33349609 796.12426758 C442.96603737 794.48830652 443.60395597 792.85436789 444.25537109 791.22583008 C446.35398574 785.88903047 447.84884379 780.40783643 449.35693359 774.87817383 C450.11883804 772.32355305 450.92821816 769.91406673 451.88427734 767.43676758 C453.52549424 763.15268602 454.77812533 758.80226414 455.98193359 754.37817383 C456.19011719 753.63116211 456.39830078 752.88415039 456.61279297 752.11450195 C457.89418058 747.45892753 459.00061773 742.79414511 459.9699707 738.06347656 C460.41943359 736.31567383 460.41943359 736.31567383 461.41943359 735.31567383 C461.74903664 733.88639516 462.03204605 732.44630531 462.29443359 731.00317383 C463.0420124 727.0867535 463.92162481 723.23838359 464.91943359 719.37817383 C467.21467992 710.33559534 468.62686681 701.19624129 469.95458984 691.96801758 C470.41943359 689.31567383 470.41943359 689.31567383 471.41943359 687.31567383 C471.7735149 685.17630865 472.07686143 683.02847998 472.35693359 680.87817383 C472.44193115 680.22945312 472.52692871 679.58073242 472.61450195 678.91235352 C473.43783276 672.47993985 474.09980645 666.03038867 474.72192383 659.57568359 C475.04431803 656.33584178 475.38616408 653.41548238 476.41943359 650.31567383 C476.55675549 648.52942738 476.64405837 646.73910836 476.70068359 644.94848633 C476.75675781 643.37260742 476.75675781 643.37260742 476.81396484 641.76489258 C476.84876953 640.66790039 476.88357422 639.5709082 476.91943359 638.44067383 C476.9885851 636.27648774 477.06137343 634.11241413 477.13818359 631.94848633 C477.18362305 630.50820068 477.18362305 630.50820068 477.22998047 629.03881836 C477.41943359 626.31567383 477.41943359 626.31567383 477.92358392 624.06265098 C478.49957838 620.87167654 478.54352806 617.88443641 478.54248142 614.64089489 C478.54421219 613.64960757 478.54421219 613.64960757 478.54597792 612.63829425 C478.54862816 610.42031107 478.54413554 608.20240025 478.53968811 605.98442078 C478.54012414 604.37968279 478.54099963 602.77494486 478.54227728 601.17020732 C478.54451604 596.75768435 478.54050936 592.34518559 478.53549922 587.93266571 C478.53118607 583.17538127 478.53264176 578.41809822 478.53340149 573.66081238 C478.53392617 565.41754011 478.53078515 557.17427575 478.52516365 548.93100548 C478.51704117 537.01257815 478.51443266 525.09415464 478.51317566 513.17572484 C478.51098632 493.83947846 478.50432942 474.50323628 478.49487305 455.16699219 C478.48569588 436.38216167 478.47861654 417.5973323 478.47436523 398.8125 C478.47410251 397.65485933 478.47383979 396.49721867 478.4735691 395.30449798 C478.47226408 389.49703151 478.47100037 383.68956504 478.4697572 377.88209856 C478.45938826 329.6932874 478.44177314 281.50448082 478.41943359 233.31567383 C477.80857407 233.30536636 477.19771454 233.2950589 476.56834412 233.28443909 C470.19267891 233.17599795 463.81714434 233.06143221 457.44165039 232.94335938 C455.06439963 232.90013075 452.68712024 232.85844747 450.30981445 232.81835938 C446.88663109 232.76036359 443.46359026 232.69675428 440.04052734 232.63208008 C438.98296738 232.61536758 437.92540741 232.59865509 436.83580017 232.58143616 C431.59931373 232.4770464 426.58598207 232.16718291 421.41943359 231.31567383 C419.19314706 231.1983793 416.96470401 231.1172692 414.73583984 231.06958008 C413.48577148 231.03799805 412.23570312 231.00641602 410.94775391 230.97387695 C409.6390332 230.94229492 408.3303125 230.91071289 406.98193359 230.87817383 C396.33854924 230.58780086 385.95209369 229.8890712 375.41943359 228.31567383 C372.69429826 228.03766884 369.96954408 227.78847961 367.23974609 227.56176758 C365.41943359 227.31567383 365.41943359 227.31567383 363.41943359 226.31567383 C359.71981879 226.03384102 356.02012327 225.86824852 352.31396484 225.69458008 C348.45250186 225.3188911 345.12609762 224.42420886 341.41943359 223.31567383 C339.65477686 223.07694063 337.88292761 222.88298988 336.10693359 222.75317383 C331.6212354 222.41657473 331.6212354 222.41657473 329.41943359 221.31567383 C327.81813167 221.15816872 326.2129294 221.03943199 324.60693359 220.94067383 C317.64786084 220.36995622 309.72724236 219.46957821 303.41943359 216.31567383 C302.16130859 216.19192383 300.90318359 216.06817383 299.60693359 215.94067383 C283.40582198 214.30206221 283.40582198 214.30206221 280.41943359 211.31567383 C278.46018531 211.08322064 276.50080208 210.85180588 274.54052734 210.62817383 C271.68593034 210.20760705 269.12135514 209.31421005 266.41943359 208.31567383 C263.00275626 207.10085522 259.65044196 206.12255666 256.10693359 205.37817383 C253.03743567 204.72443717 250.12882636 203.92074889 247.16943359 202.87817383 C242.31516187 201.18303132 237.36292152 200.12451178 232.33740234 199.06176758 C229.72546876 198.39392378 227.80277069 197.5166888 225.41943359 196.31567383 C222.36058311 195.49450591 219.28485236 194.79927958 216.19677734 194.09692383 C213.41943359 193.31567383 213.41943359 193.31567383 210.41943359 191.31567383 C208.85088687 190.83829004 207.27943451 190.3689616 205.69677734 189.94067383 C197.05757157 187.56970826 188.68165083 184.76955152 180.41943359 181.31567383 C178.81655878 180.66664091 177.21236299 180.0208618 175.60693359 179.37817383 C174.78451172 179.04817383 173.96208984 178.71817383 173.11474609 178.37817383 C170.08117778 177.18233241 167.03179738 176.03178661 163.98193359 174.87817383 C158.97943666 172.96132921 154.10798956 170.8666834 149.25146484 168.60864258 C146.2487148 167.23773187 143.21495985 165.96359438 140.16943359 164.69067383 C125.94937457 158.6276157 112.02674215 151.77649832 98.29101562 144.68920898 C95.3736734 143.20148385 92.65484824 141.90976982 89.41943359 141.31567383 C89.41943359 140.65567383 89.41943359 139.99567383 89.41943359 139.31567383 C87.81911223 138.47497968 86.21402188 137.64335878 84.60693359 136.81567383 C83.71361328 136.35161133 82.82029297 135.88754883 81.89990234 135.40942383 C79.41375333 134.11394242 79.41375333 134.11394242 76.41943359 134.31567383 C76.41943359 133.65567383 76.41943359 132.99567383 76.41943359 132.31567383 C75.33404297 131.71239258 74.24865234 131.10911133 73.13037109 130.48754883 C71.6849866 129.68038606 70.23967813 128.87308715 68.79443359 128.06567383 C68.08158203 127.66993164 67.36873047 127.27418945 66.63427734 126.86645508 C63.35388676 125.03064016 60.16254452 123.17813149 57.08349609 121.01879883 C54.52515331 119.04635735 54.52515331 119.04635735 51.41943359 119.31567383 C51.41943359 118.65567383 51.41943359 117.99567383 51.41943359 117.31567383 C50.51193359 116.82067383 49.60443359 116.32567383 48.66943359 115.81567383 C42.12030991 112.07710525 35.9339518 107.72301722 29.71630859 103.46411133 C28.91708984 102.92012695 28.11787109 102.37614258 27.29443359 101.81567383 C26.59060547 101.33098633 25.88677734 100.84629883 25.16162109 100.34692383 C23.47000673 99.14588076 23.47000673 99.14588076 21.41943359 99.31567383 C21.41943359 98.65567383 21.41943359 97.99567383 21.41943359 97.31567383 C19.46346176 95.91855109 17.45352419 94.59639754 15.41943359 93.31567383 C13.81068359 92.20192383 13.81068359 92.20192383 12.16943359 91.06567383 C9.68147996 89.13671533 9.68147996 89.13671533 7.41943359 89.31567383 C7.41943359 88.65567383 7.41943359 87.99567383 7.41943359 87.31567383 C4.95616648 85.67100643 4.95616648 85.67100643 2.41943359 84.31567383 Z " fill="#000000" transform="translate(624.58056640625,7.684326171875)"/>
<path d="M0 0 C0.81850937 -0.0049649 1.63701874 -0.00992981 2.48033142 -0.01504517 C5.18814948 -0.0296459 7.8959088 -0.03646811 10.60375977 -0.04199219 C12.4950409 -0.04774881 14.38632202 -0.05350648 16.27760315 -0.05926514 C20.24789704 -0.06977158 24.21817073 -0.07561544 28.18847656 -0.07910156 C33.24516488 -0.08456158 38.30158056 -0.10853744 43.35818386 -0.13707352 C47.26958458 -0.1558227 51.18092152 -0.16091216 55.09236336 -0.16243744 C56.95445292 -0.16544086 58.81654199 -0.17339003 60.67858696 -0.18662262 C74.21375708 -0.27588185 86.73067651 0.33627202 98.98266602 6.78613281 C99.65370361 7.13168213 100.32474121 7.47723145 101.01611328 7.83325195 C107.29466607 11.18546885 112.63492568 15.32988976 117.85766602 20.16113281 C118.6349707 20.84691406 119.41227539 21.53269531 120.21313477 22.23925781 C134.69478797 35.69896992 143.74761099 55.37332507 145.12935448 75.02523422 C145.22364293 79.22717492 145.22997356 83.41918169 145.19824219 87.62158203 C145.19739365 89.21968571 145.19787547 90.81779055 145.1995697 92.41589355 C145.20042224 96.70842142 145.18291822 101.00069222 145.16184783 105.29316092 C145.14295586 109.79610446 145.14132081 114.29905541 145.13777161 118.80203247 C145.12848762 127.30853774 145.10392379 135.81492585 145.07372314 144.32137978 C145.04006487 154.01436922 145.02366453 163.70736458 145.00863683 173.40039802 C144.97737053 193.32070807 144.92468182 213.24091303 144.85766602 233.16113281 C145.67266823 233.15836743 146.48767044 233.15560205 147.32736969 233.15275288 C167.219574 233.08630635 187.11175901 233.03676178 207.00405121 233.0056963 C216.62407941 232.99027138 226.24403323 232.96926621 235.86401367 232.93481445 C244.25532443 232.90477739 252.64658128 232.88552607 261.03794432 232.87886733 C265.47517801 232.87497915 269.91225756 232.86593422 274.34944153 232.84394264 C278.53878779 232.8233506 282.72791864 232.8173441 286.91731071 232.82180977 C288.44253148 232.8209946 289.9677606 232.81516574 291.49293709 232.80351639 C304.82372992 232.70682033 318.23457047 233.90129578 330.60766602 239.28613281 C331.31028564 239.58471191 332.01290527 239.88329102 332.73681641 240.19091797 C339.57175063 243.2392347 345.16301777 247.29524462 350.85766602 252.16113281 C351.75227539 252.89460937 352.64688477 253.62808594 353.56860352 254.38378906 C359.41383226 259.36013245 363.79968238 264.65963215 367.85766602 271.16113281 C368.55891602 272.27488281 369.26016602 273.38863281 369.98266602 274.53613281 C372.72940899 279.52052415 374.80503547 284.86199476 376.85766602 290.16113281 C377.20666962 291.01836945 377.55567322 291.87560608 377.91525269 292.75881958 C379.12029335 297.10927353 379.12197463 301.07193194 379.0847168 305.56298828 C379.08500885 306.49045364 379.0853009 307.41791901 379.08560181 308.37348938 C379.08421353 311.42519636 379.06867588 314.47665622 379.05297852 317.52832031 C379.0492466 319.64966702 379.04640047 321.77101545 379.04440308 323.8923645 C379.03678067 329.46546214 379.01714407 335.03845491 378.99499512 340.61151123 C378.97450673 346.3025165 378.96539496 351.99353877 378.95532227 357.68457031 C378.93389692 368.84347046 378.89977773 380.0022929 378.85766602 391.16113281 C378.19766602 391.16113281 377.53766602 391.16113281 376.85766602 391.16113281 C376.75454102 392.33675781 376.65141602 393.51238281 376.54516602 394.72363281 C376.01136489 398.94214446 374.71274866 402.313554 372.85766602 406.16113281 C372.6037207 406.7528125 372.34977539 407.34449219 372.08813477 407.95410156 C368.02046924 416.96240193 361.76105329 425.23359236 353.85766602 431.16113281 C353.09454102 431.96550781 352.33141602 432.76988281 351.54516602 433.59863281 C339.40146893 445.17750678 321.50574049 452.29395091 304.7961731 452.28138733 C304.1090933 452.28224175 303.42201351 452.28309618 302.71411312 452.2839765 C300.42486026 452.28561619 298.13568159 452.2801348 295.84643555 452.2746582 C294.20025128 452.27437598 292.55406689 452.27453475 290.90788269 452.27510071 C286.44762537 452.27538731 281.98739501 452.26951274 277.52714396 452.26252675 C272.86265099 452.25627038 268.1981574 452.2556876 263.53366089 452.25450134 C254.70465411 452.25139477 245.87565972 452.24319044 237.0466584 452.23315185 C226.99350787 452.22196981 216.94035675 452.21647499 206.88720155 452.21145642 C186.21068279 452.20100728 165.53417518 452.18342086 144.85766602 452.16113281 C144.86135319 453.00190369 144.86504036 453.84267456 144.86883926 454.70892334 C144.9574221 475.22700122 145.02348796 495.74504586 145.0649147 516.26327515 C145.08548413 526.18600358 145.11349647 536.10860386 145.15942383 546.03125 C145.19946452 554.68624972 145.2251396 563.34115656 145.23401999 571.99624634 C145.23920575 576.57325753 145.25127504 581.15000317 145.28058624 585.72692871 C145.30802865 590.04764003 145.31605376 594.36798009 145.31009674 598.68877029 C145.31118425 600.26237643 145.31896474 601.83599688 145.33448792 603.40952682 C145.54738813 626.13288709 138.5013582 646.79368921 123.10766602 663.78613281 C122.63570801 664.30755859 122.16375 664.82898438 121.67749023 665.36621094 C119.42250504 667.77346201 118.03840145 669.10088767 114.85766602 670.16113281 C114.85766602 670.82113281 114.85766602 671.48113281 114.85766602 672.16113281 C102.70624312 681.44214085 89.52747617 687.47983823 74.21972656 687.43579102 C73.29013123 687.44090195 72.36053589 687.44601288 71.402771 687.45127869 C68.34990887 687.46510316 65.29727435 687.46422309 62.24438477 687.46191406 C60.10740578 687.46580531 57.97042755 687.47014087 55.83345032 687.47489929 C51.36078379 687.48234646 46.88819622 687.48208141 42.41552734 687.47680664 C36.70632611 687.47101844 30.99744996 687.48793486 25.28830242 687.51115131 C20.87600337 687.52594133 16.46378163 687.52675312 12.05146217 687.52364159 C9.9476946 687.52415229 7.8439224 687.52934259 5.74017906 687.53945351 C-8.08676152 687.59775026 -19.94263703 687.21822509 -32.14233398 680.03613281 C-32.82384521 679.63998779 -33.50535645 679.24384277 -34.20751953 678.83569336 C-50.96697557 668.85902719 -65.10675969 653.14963406 -70.7512207 634.10693359 C-71.53024648 631.01088168 -72.13401548 627.90536136 -72.66967773 624.75878906 C-72.87336519 622.24040122 -72.87336519 622.24040122 -74.14233398 621.16113281 C-74.23930315 618.9842067 -74.26420144 616.80406888 -74.2625885 614.62498474 C-74.26387014 613.58852258 -74.26387014 613.58852258 -74.26517767 612.53112179 C-74.26683445 610.19870061 -74.26130789 607.86635018 -74.25585938 605.53393555 C-74.25557752 603.8687846 -74.2557352 602.20363354 -74.25630188 600.53848267 C-74.25658992 596.00355175 -74.25069215 591.46864705 -74.24372792 586.93372226 C-74.23749546 582.19979912 -74.23689067 577.46587546 -74.23570251 572.73194885 C-74.23258888 563.76111181 -74.22437506 554.7902869 -74.21435302 545.81945521 C-74.20319289 535.60922889 -74.19768169 525.39900202 -74.19265759 515.18877113 C-74.18219247 494.17955158 -74.16459241 473.17034296 -74.14233398 452.16113281 C-74.99102397 452.16389819 -75.83971395 452.16666357 -76.71412182 452.16951275 C-97.40641405 452.23589226 -118.09868781 452.28547151 -138.79106426 452.31656933 C-148.79792299 452.33200941 -158.80471046 452.35304403 -168.81152344 452.38745117 C-177.53790948 452.41744132 -186.26424389 452.43672858 -194.99068004 452.4433983 C-199.60722647 452.44729432 -204.22362523 452.45639036 -208.84012413 452.47832298 C-213.19443488 452.49884037 -217.54853856 452.50493612 -221.90289307 452.50045586 C-223.4922632 452.50127429 -225.081641 452.50714844 -226.67096901 452.51874924 C-239.32158452 452.60647929 -251.13387352 451.21682418 -262.64233398 445.59863281 C-263.35446045 445.25638672 -264.06658691 444.91414063 -264.80029297 444.56152344 C-271.98101169 440.96835189 -278.09854574 436.41146282 -284.14233398 431.16113281 C-285.27928711 430.175 -285.27928711 430.175 -286.43920898 429.16894531 C-299.52298923 416.94727462 -308.55787205 398.74584171 -309.42591858 380.79637146 C-309.57373372 375.77109869 -309.56028214 370.74664694 -309.54077148 365.71972656 C-309.54279792 363.86133205 -309.54571407 362.00293833 -309.54946899 360.14454651 C-309.55386445 356.27084702 -309.54755089 352.39735661 -309.53344727 348.52368164 C-309.51634508 343.58929291 -309.52622093 338.65539351 -309.54416466 333.72102261 C-309.55506781 329.89028822 -309.55152658 326.05966756 -309.54378128 322.22892952 C-309.5417979 320.41068525 -309.54417208 318.59243023 -309.55121994 316.77419853 C-309.5920496 303.28675356 -308.44979231 291.34738725 -302.14233398 279.16113281 C-301.67182617 278.236875 -301.20131836 277.31261719 -300.71655273 276.36035156 C-290.92142525 258.3363819 -275.18791535 245.20985044 -256.14233398 237.84863281 C-255.52680664 237.6062085 -254.9112793 237.36378418 -254.27709961 237.11401367 C-243.14433945 233.03152092 -231.61988481 232.87542614 -219.90893555 232.93408203 C-218.31112678 232.93464742 -216.7133175 232.9343271 -215.11550903 232.93319702 C-210.81465739 232.93262748 -206.51391923 232.94431657 -202.21309376 232.95834494 C-197.70479229 232.9709194 -193.19648769 232.97202806 -188.68817139 232.97439575 C-180.16746443 232.9805909 -171.64680931 232.99697491 -163.1261251 233.01709473 C-153.41866275 233.03951518 -143.71119782 233.05046256 -134.00371599 233.0604856 C-114.04989315 233.08134304 -94.09611684 233.11648048 -74.14233398 233.16113281 C-74.14602116 232.32459388 -74.14970833 231.48805494 -74.15350723 230.62616634 C-74.2420673 210.21692704 -74.30814495 189.80772113 -74.34958267 169.39832973 C-74.37015725 159.52825939 -74.3981796 149.65831777 -74.4440918 139.78833008 C-74.48411655 131.17985173 -74.50980384 122.57146666 -74.51868796 113.96289784 C-74.52387638 109.4099513 -74.53596304 104.85727149 -74.56525421 100.30441093 C-74.59267125 96.00750467 -74.60072669 91.71097164 -74.59476471 87.41398621 C-74.59585332 85.84802271 -74.60364925 84.28204501 -74.61915588 82.71615791 C-74.83121361 60.17116037 -67.06841526 40.08141387 -51.50952148 23.50097656 C-40.29327118 12.4142869 -27.39281737 5.00634016 -12.14233398 1.16113281 C-11.59371201 0.98519592 -11.04509003 0.80925903 -10.47984314 0.62799072 C-7.00223417 -0.06657308 -3.53206853 0.00513201 0 0 Z M-7.14233398 62.16113281 C-7.14233398 62.82113281 -7.14233398 63.48113281 -7.14233398 64.16113281 C-8.13233398 64.49113281 -9.12233398 64.82113281 -10.14233398 65.16113281 C-11.57276259 67.00305268 -11.57276259 67.00305268 -12.76733398 69.28613281 C-13.40541992 70.40375 -13.40541992 70.40375 -14.05639648 71.54394531 C-16.37438972 77.13047578 -16.28740705 83.14247951 -16.26690674 89.11079407 C-16.26831689 89.88151078 -16.26972703 90.65222749 -16.27117991 91.44629925 C-16.27481207 94.01312772 -16.27150542 96.5799002 -16.26831055 99.14672852 C-16.26970639 100.99358157 -16.2716064 102.84043431 -16.27397156 104.68728638 C-16.27845894 108.6574002 -16.28032443 112.62750372 -16.28043365 116.59762001 C-16.28157675 122.88087697 -16.29443493 129.16407554 -16.30999756 135.4473114 C-16.31257041 136.50909035 -16.31514327 137.57086929 -16.31779408 138.66482335 C-16.32306033 140.83558214 -16.32834581 143.00634089 -16.33365011 145.17709959 C-16.36872246 159.79865834 -16.39531134 174.42014369 -16.39282227 189.04174805 C-16.39123209 198.91382397 -16.40730401 208.78569987 -16.44352889 218.65771168 C-16.46195947 223.87716382 -16.47135669 229.09628207 -16.45905304 234.31575966 C-16.44758779 239.22681096 -16.45938687 244.13726482 -16.48868752 249.04823685 C-16.49530832 250.84525792 -16.49349532 252.64233402 -16.48238945 254.43933296 C-16.42015471 265.42503643 -16.97008208 274.13864771 -24.42358398 282.81738281 C-25.15577148 283.42582031 -25.88795898 284.03425781 -26.64233398 284.66113281 C-27.37452148 285.29019531 -28.10670898 285.91925781 -28.86108398 286.56738281 C-33.73215983 289.9704632 -38.10849555 290.45274887 -43.93414307 290.42614746 C-44.7120236 290.43052873 -45.48990413 290.43491 -46.2913568 290.43942404 C-48.89441052 290.4517323 -51.49726237 290.44993671 -54.1003418 290.44824219 C-55.96822915 290.45426729 -57.83611379 290.46119176 -59.70399475 290.46894836 C-63.72544399 290.48383534 -67.74684359 290.49258614 -71.76831818 290.49665833 C-78.1309759 290.50337466 -84.49352762 290.52513351 -90.85614014 290.54919434 C-104.3681799 290.59816792 -117.88024215 290.63047063 -131.39233398 290.66113281 C-145.96612267 290.69422886 -160.53986988 290.73021669 -175.11359477 290.78526354 C-181.43428721 290.8085703 -187.75490618 290.82234289 -194.07563734 290.82875824 C-198.01484015 290.83471131 -201.9539837 290.84882068 -205.89315605 290.86510277 C-207.71478694 290.87096166 -209.53643236 290.87345455 -211.35807228 290.87226295 C-213.85303661 290.87109657 -216.34767102 290.88217781 -218.84259033 290.89611816 C-219.55613528 290.89281919 -220.26968024 290.88952022 -221.00484776 290.88612127 C-229.58748583 290.9647608 -237.43820734 292.58612223 -244.14233398 298.16113281 C-252.35982248 306.67015083 -252.45172131 315.98476902 -252.44311523 327.27832031 C-252.44740036 328.5306546 -252.45168549 329.78298889 -252.45610046 331.07327271 C-252.46182654 333.71419442 -252.46330001 336.35472309 -252.45800781 338.99560547 C-252.45337109 341.68587942 -252.46031423 344.37570208 -252.47851562 347.06591797 C-252.50312339 350.97019031 -252.50716703 354.87397978 -252.50561523 358.77832031 C-252.51482498 359.97029022 -252.52403473 361.16226013 -252.53352356 362.39035034 C-252.48191596 371.79111038 -251.60901355 380.61337317 -244.88061523 387.69238281 C-237.89355005 393.59606036 -230.14864008 394.3141544 -221.26823425 394.29243469 C-220.49358285 394.29455041 -219.71893144 394.29666612 -218.92080575 394.29884595 C-216.33472202 394.30481958 -213.74868744 394.30384768 -211.16259766 394.30297852 C-209.30441709 394.30601175 -207.44623727 394.30953366 -205.58805847 394.31350708 C-201.59064337 394.3213836 -197.59323713 394.32653628 -193.59581566 394.32979774 C-187.27090615 394.33571845 -180.94605259 394.35226865 -174.62117004 394.37113953 C-172.4539328 394.37747654 -170.28669551 394.38380217 -168.1194582 394.39011669 C-166.49164966 394.39486541 -166.49164966 394.39486541 -164.8309561 394.39971006 C-150.11013293 394.44175426 -135.38933628 394.47476409 -120.66845703 394.48706055 C-110.73269176 394.49544512 -100.79706559 394.51794873 -90.86136991 394.55641621 C-85.6067699 394.57615962 -80.35237774 394.588587 -75.09773827 394.58358192 C-70.15394007 394.57893001 -65.21053589 394.59277073 -60.26681709 394.62059402 C-58.45647856 394.627496 -56.6460992 394.62764309 -54.83576202 394.62039375 C-37.26710197 394.55716717 -37.26710197 394.55716717 -30.14233398 399.16113281 C-29.33280273 399.67933594 -28.52327148 400.19753906 -27.68920898 400.73144531 C-21.42545466 406.15095449 -17.65412838 411.73698015 -16.68551064 420.11009407 C-16.43751471 424.9985901 -16.48045551 429.8854893 -16.51464844 434.77856445 C-16.50946381 436.65704557 -16.5020593 438.53552167 -16.49261475 440.41398621 C-16.47710124 444.44311401 -16.4771863 448.47182555 -16.4896183 452.50096321 C-16.50922287 458.87670137 -16.49392405 465.25207215 -16.47416687 471.62779236 C-16.44705789 481.71387029 -16.44351843 491.79979757 -16.44993991 501.88590473 C-16.46089024 519.94620449 -16.43622321 538.00645883 -16.39619225 556.06671232 C-16.38314611 562.39998429 -16.38184738 568.73311826 -16.39032519 575.06639683 C-16.39395846 579.00995114 -16.38964034 582.9534704 -16.38348389 586.89702034 C-16.38240155 588.7202772 -16.384742 590.54353994 -16.39082909 592.36678696 C-16.3987625 594.86364922 -16.39436718 597.36021288 -16.38716125 599.85707092 C-16.39250659 600.57109623 -16.39785192 601.28512153 -16.40335923 602.02078396 C-16.34154744 611.62072075 -14.39474088 618.90872591 -7.45483398 625.84863281 C0.20390636 631.76427111 9.23237592 631.60520453 18.51000977 631.55957031 C20.45297691 631.56387558 20.45297691 631.56387558 22.43519592 631.56826782 C25.16426452 631.57266492 27.89303649 631.56634662 30.62207031 631.55224609 C34.09281314 631.53517237 37.56285879 631.54499985 41.03357601 631.56296349 C44.37994069 631.5765109 47.72612539 631.56697983 51.07250977 631.55957031 C52.30509018 631.56564301 53.53767059 631.5717157 54.80760193 631.57797241 C63.05931548 631.51136026 70.62458568 630.82981389 77.73266602 626.34863281 C80.20138017 623.80730942 82.02666351 621.19175764 83.85766602 618.16113281 C84.24954102 617.52175781 84.64141602 616.88238281 85.04516602 616.22363281 C87.17639781 610.81358288 87.00162459 604.83445463 86.98223877 599.09757996 C86.98364892 598.31461259 86.98505907 597.53164522 86.98651195 596.72495157 C86.99014483 594.1166648 86.98683713 591.50843311 86.98364258 588.90014648 C86.98503838 587.02373716 86.98693837 585.14732815 86.98930359 583.2709198 C86.99379132 579.23696324 86.99565647 575.20301683 86.99576569 571.16905785 C86.99690866 564.78498648 87.00976599 558.4009726 87.02532959 552.016922 C87.02790244 550.9381651 87.0304753 549.8594082 87.03312612 548.7479617 C87.03839237 546.54247724 87.04367785 544.33699283 87.04898214 542.13150847 C87.0840563 527.27508182 87.11064331 512.4187274 87.1081543 497.56225586 C87.10656422 487.53196818 87.12263393 477.50187738 87.15886092 467.47165281 C87.17729311 462.16836525 87.1866873 456.86540634 87.17438507 451.56209373 C87.16292138 446.57225148 87.17471535 441.58299732 87.20401955 436.59323311 C87.21064137 434.76718584 87.20882559 432.94108441 87.19772148 431.1150589 C87.13963883 420.69518229 87.26502003 411.68958902 94.37932205 403.38486004 C103.94295209 394.20654799 115.90263334 394.58587698 128.30737305 394.64697266 C130.16777119 394.64150549 132.02816482 394.63426038 133.8885498 394.62538147 C137.87833456 394.61009655 141.86786236 394.60722063 145.85766983 394.61414719 C152.17009714 394.62496944 158.48225773 394.6075101 164.79464722 394.58633423 C174.7791822 394.55612382 184.7636377 394.54438403 194.7482146 394.54075778 C212.63065063 394.53410139 230.51303154 394.50504777 248.39539993 394.45566142 C254.66705282 394.4391908 260.93859011 394.4337413 267.21026254 394.43725181 C271.11334852 394.43768959 275.01639102 394.43011355 278.91946411 394.4205761 C280.72539977 394.41789923 282.5313443 394.41863494 284.33727646 394.42308617 C286.80822364 394.42875422 289.27885736 394.4221509 291.74978638 394.41268921 C292.45894262 394.41735242 293.16809887 394.42201564 293.8987447 394.42682016 C303.23415496 394.35733768 310.40201951 391.86956823 317.04516602 385.16113281 C323.28435928 377.34176113 323.31786167 366.42708004 323.29125977 356.85253906 C323.29912254 355.15967018 323.29912254 355.15967018 323.30714417 353.43260193 C323.31352129 351.06371884 323.31228386 348.6948039 323.30371094 346.32592773 C323.29519513 342.73590842 323.32403546 339.14748029 323.35571289 335.55761719 C323.7812931 316.72316039 323.7812931 316.72316039 316.67016602 299.66113281 C308.45768019 292.36114541 300.63512139 291.00343715 289.81861877 291.02983093 C288.64817635 291.02665736 288.64817635 291.02665736 287.45408863 291.02341968 C284.85495749 291.0174566 282.2558754 291.01841717 279.65673828 291.01928711 C277.78693561 291.01625323 275.91713368 291.01273114 274.04733276 291.00875854 C270.0281065 291.00088789 266.00888904 290.99573161 261.98965645 290.99246788 C255.63133674 290.98654383 249.27307257 290.96999116 242.91477966 290.9511261 C240.73569969 290.94478932 238.55661968 290.93846369 236.37753963 290.93214893 C235.2865153 290.92898312 234.19549097 290.92581731 233.07140529 290.92255557 C218.27450125 290.88051349 203.4776239 290.84749312 188.68066406 290.83520508 C178.69069882 290.8268239 168.70087204 290.80433456 158.71097606 290.76584941 C153.42791846 290.74609775 148.14506779 290.73368145 142.8619709 290.7386837 C137.89353985 290.74333119 132.92550142 290.72951907 127.95714951 290.7016716 C126.13671469 290.69476271 124.31623926 290.69463001 122.49580574 290.70187187 C120.00463812 290.71077929 117.51476012 290.69503731 115.0236969 290.67338562 C113.95105657 290.68604943 113.95105657 290.68604943 112.85674673 290.69896907 C105.93484796 290.58822022 100.90191346 288.11649993 95.98266602 283.41113281 C95.28141602 282.66863281 94.58016602 281.92613281 93.85766602 281.16113281 C93.19766602 281.16113281 92.53766602 281.16113281 91.85766602 281.16113281 C91.19099935 279.49446615 90.52433268 277.82779948 89.85766602 276.16113281 C89.51006761 275.43740384 89.1624692 274.71367487 88.8043375 273.96801472 C87.61066361 270.42877044 87.57242229 267.12899714 87.58592224 263.43852234 C87.57829199 262.28289385 87.57829199 262.28289385 87.57050759 261.10391933 C87.55586181 258.52617846 87.55531357 255.94862914 87.5546875 253.37084961 C87.54702501 251.52104318 87.53847839 249.67124024 87.52911377 247.82144165 C87.51083961 243.83928228 87.49879802 239.85716983 87.49157524 235.8749752 C87.48008482 229.57559999 87.4546252 223.27632841 87.42726135 216.977005 C87.38560798 207.01004093 87.35319812 197.04307186 87.3247872 187.07606202 C87.27384509 169.23657483 87.21154994 151.39713162 87.13944679 133.55771762 C87.1145702 127.29864995 87.0951174 121.03959569 87.08006465 114.78049695 C87.06983672 110.88178569 87.05568989 106.98309531 87.04058838 103.08440018 C87.03444972 101.28008455 87.029981 99.47576234 87.0273304 97.67143822 C87.02349734 95.20248512 87.01366024 92.73362316 87.00242615 90.26469421 C87.00281228 89.55601832 87.00319841 88.84734242 87.00359625 88.11719149 C86.97366695 83.38044881 86.51550781 78.84221372 85.85766602 74.16113281 C85.19766602 74.16113281 84.53766602 74.16113281 83.85766602 74.16113281 C83.82672852 72.89269531 83.82672852 72.89269531 83.79516602 71.59863281 C82.20344633 65.7623273 77.95483219 62.45512896 72.92016602 59.34863281 C65.16479268 56.34144723 58.18773662 55.84223632 49.93969727 55.82519531 C48.80545822 55.81853851 47.67121918 55.81188171 46.50260925 55.80502319 C44.10982882 55.79493249 41.71702044 55.79020506 39.32421875 55.79052734 C35.69881767 55.78616727 32.07464801 55.74984317 28.44946289 55.71191406 C9.81704026 55.31239077 9.81704026 55.31239077 -7.14233398 62.16113281 Z " fill="#000000" transform="translate(605.142333984375,295.8388671875)"/>
</svg>
